<svg xmlns="http://www.w3.org/2000/svg" xmlns:xlink="http://www.w3.org/1999/xlink" width="500" zoomAndPan="magnify" viewBox="0 0 375 374.999991" height="500" preserveAspectRatio="xMidYMid meet" version="1.0"><defs><g/><clipPath id="7684321444"><path d="M 158 116 L 207 116 L 207 137 L 158 137 Z M 158 116 " clip-rule="nonzero"/></clipPath><clipPath id="22a21930df"><path d="M 158.894531 137.28125 L 158.476562 117.789062 L 206.464844 116.757812 L 206.882812 136.253906 Z M 158.894531 137.28125 " clip-rule="nonzero"/></clipPath><clipPath id="a7db5a68c0"><path d="M 158.894531 137.28125 L 158.476562 117.789062 L 206.464844 116.757812 L 206.882812 136.253906 Z M 158.894531 137.28125 " clip-rule="nonzero"/></clipPath></defs><g fill="#000000" fill-opacity="1"><g transform="translate(36.898117, 179.709676)"><g><path d="M 0 0 C 7.476562 0 14.953125 0 22.429688 0 C 38.0625 0 52.109375 -9.742188 52.109375 -28.320312 C 52.109375 -46.898438 38.0625 -56.640625 22.429688 -56.640625 C 14.953125 -56.640625 7.476562 -56.640625 0 -56.640625 C 1.058594 -53.773438 1.359375 -50.449219 1.359375 -46.597656 C 1.359375 -40.40625 1.359375 -16.238281 1.359375 -10.042969 C 1.359375 -6.191406 1.058594 -2.871094 0 0 Z M 10.042969 -53.695312 L 22.429688 -53.695312 C 33.152344 -53.695312 43.199219 -43.953125 43.199219 -28.320312 C 43.199219 -12.6875 33.152344 -2.945312 22.429688 -2.945312 L 10.042969 -2.945312 Z M 10.042969 -53.695312 "/></g></g></g><g fill="#000000" fill-opacity="1"><g transform="translate(95.419295, 179.709676)"><g><path d="M 15.707031 -6.117188 C 12.761719 -8.003906 15.332031 -10.722656 20.164062 -11.933594 C 22.65625 -12.613281 25.527344 -12.988281 28.019531 -13.820312 C 36.101562 -16.539062 37.15625 -25.300781 32.019531 -31.191406 C 28.847656 -34.816406 23.789062 -37.007812 18.503906 -37.007812 C 8.308594 -37.007812 0 -28.699219 0 -18.503906 C 0 -8.308594 8.308594 0 18.503906 0 C 25.753906 0 32.097656 -4.152344 35.117188 -10.269531 L 33.683594 -12.234375 C 30.8125 -5.589844 22.128906 -2.039062 15.707031 -6.117188 Z M 11.628906 -9.136719 C 10.574219 -10.195312 9.667969 -11.402344 8.835938 -12.839844 C 4.378906 -20.390625 5.058594 -29.074219 10.421875 -32.171875 C 12.386719 -33.304688 14.574219 -33.53125 16.691406 -33.230469 C 21.371094 -32.398438 26.207031 -28.699219 27.566406 -24.089844 C 28.472656 -20.996094 27.640625 -17.824219 24.089844 -16.3125 C 19.863281 -14.574219 13.894531 -13.746094 11.628906 -9.136719 Z M 11.628906 -9.136719 "/></g></g></g><g fill="#000000" fill-opacity="1"><g transform="translate(137.101476, 179.709676)"><g><path d="M 0 -27.113281 C 0.152344 -18.503906 16.386719 -15.933594 24.542969 -11.554688 C 29.300781 -8.988281 31.792969 -4.683594 24.542969 -3.019531 C 22.355469 -2.492188 19.863281 -2.566406 18.199219 -2.871094 C 13.441406 -3.699219 8.910156 -6.417969 5.210938 -9.441406 L 0 -2.191406 C 4.984375 -1.058594 12.535156 0 19.257812 0 C 28.394531 0 33.832031 -4.457031 33.757812 -9.894531 C 33.605469 -19.183594 14.800781 -21.449219 7.402344 -26.507812 C 3.246094 -29.378906 3.777344 -32.777344 9.136719 -33.984375 C 11.328125 -34.515625 13.820312 -34.4375 15.558594 -34.136719 C 20.316406 -33.304688 24.847656 -30.585938 28.546875 -27.566406 L 33.757812 -34.816406 C 28.773438 -35.949219 21.144531 -37.007812 14.5 -37.007812 C 5.363281 -37.007812 -0.0742188 -32.550781 0 -27.113281 Z M 0 -27.113281 "/></g></g></g><g fill="#000000" fill-opacity="1"><g transform="translate(177.424457, 179.709676)"><g><path d="M 8.609375 -9.214844 C 8.609375 -15.40625 8.609375 -21.597656 8.609375 -27.792969 C 8.609375 -31.644531 8.835938 -34.210938 9.96875 -37.007812 C 6.644531 -37.007812 3.324219 -37.007812 0 -37.007812 C 1.058594 -34.210938 1.359375 -31.644531 1.359375 -27.792969 C 1.359375 -21.597656 1.359375 -15.40625 1.359375 -9.214844 C 1.359375 -5.4375 1.058594 -2.871094 0 0 C 3.324219 0 6.644531 0 9.96875 0 C 8.835938 -2.871094 8.609375 -5.4375 8.609375 -9.214844 Z M 4.984375 -46.824219 C 2.945312 -46.824219 1.359375 -45.238281 1.359375 -43.199219 C 1.359375 -41.160156 2.945312 -39.574219 4.984375 -39.574219 C 6.949219 -39.574219 8.609375 -41.160156 8.609375 -43.199219 C 8.609375 -45.238281 6.949219 -46.824219 4.984375 -46.824219 Z M 4.984375 -46.824219 "/></g></g></g><g fill="#000000" fill-opacity="1"><g transform="translate(193.734881, 179.709676)"><g><path d="M 34.589844 0.832031 C 28.847656 1.660156 23.109375 4.378906 18.050781 5.738281 C 6.191406 8.835938 4.683594 2.871094 7.097656 -3.925781 C 10.269531 -1.511719 14.199219 0 18.503906 0 C 28.773438 0 37.007812 -8.308594 37.007812 -18.503906 C 37.007812 -26.207031 32.324219 -32.851562 25.675781 -35.648438 C 29.832031 -36.628906 33.757812 -38.894531 33.757812 -43.652344 L 26.433594 -43.652344 C 26.433594 -37.007812 21.523438 -37.007812 18.503906 -37.007812 C 8.308594 -37.007812 0 -28.773438 0 -18.503906 C 0 -14.199219 1.511719 -10.121094 4.078125 -7.023438 C -2.644531 4.003906 2.492188 14.273438 16.613281 9.214844 C 23.261719 6.796875 31.566406 2.417969 38.0625 3.851562 C 46.371094 5.664062 46.597656 16.085938 39.5 19.558594 C 26.582031 26.054688 11.328125 11.855469 -1.285156 12.386719 C -7.476562 12.6875 -13.066406 15.558594 -15.632812 21.523438 L -10.042969 26.507812 C -6.34375 18.125 0.300781 16.386719 7.628906 17.671875 C 16.238281 19.257812 24.921875 23.714844 33.832031 23.863281 C 41.3125 24.015625 52.109375 20.089844 52.035156 11.175781 C 51.882812 5.058594 45.765625 -0.753906 34.589844 0.832031 Z M 21.371094 -31.339844 C 23.941406 -29.753906 26.355469 -27.339844 28.246094 -24.242188 C 32.699219 -16.691406 31.945312 -8.003906 26.582031 -4.832031 C 21.824219 -2.039062 14.953125 -4.605469 10.421875 -10.496094 C 11.101562 -11.628906 11.855469 -12.6875 12.613281 -13.746094 C 16.992188 -19.257812 21.222656 -24.542969 21.597656 -28.699219 C 21.675781 -29.679688 21.597656 -30.585938 21.371094 -31.339844 Z M 10.496094 -32.246094 C 12.160156 -33.230469 14.199219 -33.53125 16.238281 -33.230469 C 18.878906 -32.550781 19.105469 -29.527344 18.425781 -27.414062 C 17.292969 -24.089844 13.894531 -19.785156 10.347656 -15.332031 C 9.816406 -14.652344 9.214844 -13.972656 8.609375 -13.214844 C 4.457031 -20.691406 5.210938 -29.152344 10.496094 -32.246094 Z M 10.496094 -32.246094 "/></g></g></g><g fill="#000000" fill-opacity="1"><g transform="translate(237.304849, 179.709676)"><g><path d="M 0 -37.007812 C 1.058594 -34.210938 1.359375 -31.644531 1.359375 -27.792969 L 1.359375 -9.214844 C 1.359375 -5.4375 1.058594 -2.871094 0 0 C 3.324219 0 6.644531 0 9.96875 0 C 8.835938 -2.871094 8.609375 -5.4375 8.609375 -9.214844 L 8.609375 -27.261719 C 8.609375 -27.414062 8.609375 -27.640625 8.609375 -27.867188 C 11.027344 -29.226562 14.574219 -31.039062 17.746094 -32.097656 C 23.335938 -33.910156 27.792969 -33.304688 27.792969 -26.054688 L 27.792969 -9.214844 C 27.792969 -5.4375 27.488281 -2.871094 26.433594 0 C 29.753906 0 33.078125 0 36.402344 0 C 35.34375 -2.871094 35.042969 -5.4375 35.042969 -9.214844 C 35.042969 -14.652344 35.042969 -21.824219 35.042969 -27.566406 C 35.042969 -33.832031 31.644531 -37.007812 25.449219 -37.007812 C 19.484375 -37.007812 13.292969 -33.605469 8.535156 -30.660156 C 8.457031 -32.851562 8.082031 -34.890625 7.25 -37.007812 Z M 0 -37.007812 "/></g></g></g><g clip-path="url(#7684321444)"><g clip-path="url(#22a21930df)"><g clip-path="url(#a7db5a68c0)"><path fill="#ff914d" d="M 205.765625 116.785156 C 206.402344 118.957031 206.566406 121.515625 206.027344 124.144531 C 205.75 125.457031 205.335938 126.78125 204.628906 128.074219 C 204.28125 128.71875 203.847656 129.351562 203.316406 129.933594 C 203.1875 130.078125 203.050781 130.21875 202.90625 130.355469 L 202.453125 130.75 C 202.304688 130.886719 202.140625 131.003906 201.972656 131.113281 C 201.804688 131.226562 201.644531 131.355469 201.46875 131.453125 C 200.777344 131.878906 200.019531 132.1875 199.25 132.425781 C 198.472656 132.648438 197.667969 132.773438 196.863281 132.835938 C 196.0625 132.875 195.257812 132.855469 194.457031 132.761719 C 193.664062 132.652344 192.871094 132.503906 192.101562 132.269531 C 191.90625 132.21875 191.714844 132.152344 191.523438 132.085938 C 191.332031 132.019531 191.136719 131.957031 190.953125 131.878906 L 190.386719 131.65625 L 189.847656 131.410156 C 189.132812 131.070312 188.4375 130.703125 187.773438 130.296875 C 186.4375 129.496094 185.203125 128.59375 184.019531 127.691406 C 182.835938 126.789062 181.699219 125.886719 180.558594 125.058594 C 179.429688 124.238281 178.277344 123.496094 177.089844 122.890625 C 176.496094 122.589844 175.898438 122.316406 175.292969 122.097656 C 174.992188 121.976562 174.683594 121.894531 174.378906 121.796875 C 174.074219 121.71875 173.769531 121.625 173.464844 121.574219 C 173.15625 121.503906 172.855469 121.476562 172.546875 121.421875 C 172.246094 121.40625 171.9375 121.367188 171.636719 121.375 C 171.332031 121.359375 171.03125 121.390625 170.730469 121.40625 C 170.433594 121.441406 170.136719 121.492188 169.835938 121.53125 C 168.648438 121.761719 167.511719 122.246094 166.457031 122.890625 C 165.398438 123.53125 164.425781 124.324219 163.523438 125.167969 C 161.71875 126.871094 160.191406 128.769531 158.75 130.507812 C 159.230469 129.484375 159.753906 128.429688 160.351562 127.363281 C 160.953125 126.296875 161.621094 125.21875 162.417969 124.167969 C 163.222656 123.121094 164.148438 122.097656 165.265625 121.191406 C 166.382812 120.289062 167.710938 119.511719 169.207031 119.054688 C 169.582031 118.957031 169.964844 118.859375 170.351562 118.773438 C 170.738281 118.707031 171.132812 118.636719 171.53125 118.617188 C 171.929688 118.574219 172.328125 118.585938 172.730469 118.582031 C 173.125 118.605469 173.527344 118.617188 173.925781 118.675781 C 174.324219 118.71875 174.710938 118.796875 175.101562 118.871094 C 175.488281 118.964844 175.875 119.050781 176.25 119.171875 C 177.011719 119.394531 177.746094 119.679688 178.460938 120 C 179.886719 120.640625 181.230469 121.4375 182.492188 122.308594 C 183.742188 123.175781 184.921875 124.089844 186.078125 124.96875 C 187.234375 125.851562 188.371094 126.699219 189.53125 127.4375 C 190.109375 127.808594 190.695312 128.140625 191.289062 128.445312 L 191.734375 128.671875 L 192.175781 128.867188 C 192.320312 128.9375 192.472656 128.992188 192.621094 129.050781 C 192.773438 129.105469 192.917969 129.171875 193.074219 129.21875 C 193.679688 129.4375 194.300781 129.589844 194.921875 129.714844 C 195.546875 129.832031 196.167969 129.886719 196.785156 129.910156 C 197.402344 129.90625 198.007812 129.863281 198.589844 129.753906 C 199.167969 129.628906 199.734375 129.464844 200.25 129.214844 C 200.386719 129.160156 200.503906 129.082031 200.628906 129.015625 C 200.757812 128.945312 200.886719 128.882812 200.996094 128.792969 L 201.351562 128.554688 C 201.46875 128.464844 201.578125 128.378906 201.6875 128.28125 C 202.125 127.902344 202.527344 127.460938 202.878906 126.972656 C 203.59375 126 204.152344 124.867188 204.597656 123.730469 C 205.480469 121.445312 205.839844 119.046875 205.765625 116.785156 Z M 203.746094 116.820312 C 203.394531 117.722656 203.003906 118.671875 202.53125 119.617188 C 202.058594 120.5625 201.511719 121.5 200.835938 122.324219 C 200.164062 123.144531 199.367188 123.839844 198.460938 124.238281 C 197.558594 124.644531 196.546875 124.78125 195.492188 124.683594 C 194.453125 124.597656 193.476562 124.261719 192.519531 123.71875 C 191.558594 123.183594 190.632812 122.476562 189.6875 121.78125 C 188.746094 121.089844 187.769531 120.40625 186.738281 119.921875 C 185.710938 119.433594 184.625 119.175781 183.660156 119.203125 C 184.558594 119.582031 185.386719 120.132812 186.164062 120.820312 C 186.945312 121.503906 187.683594 122.3125 188.496094 123.160156 C 189.308594 124.003906 190.199219 124.898438 191.324219 125.65625 C 191.882812 126.039062 192.503906 126.375 193.175781 126.628906 C 193.84375 126.882812 194.570312 127.046875 195.28125 127.105469 C 195.988281 127.167969 196.71875 127.148438 197.445312 127.015625 C 198.164062 126.878906 198.871094 126.625 199.507812 126.269531 C 200.144531 125.914062 200.710938 125.460938 201.179688 124.957031 C 201.652344 124.453125 202.035156 123.90625 202.351562 123.34375 C 202.980469 122.21875 203.335938 121.058594 203.546875 119.953125 C 203.746094 118.847656 203.789062 117.789062 203.746094 116.820312 Z M 181.1875 129.234375 C 180.027344 128.300781 178.789062 127.402344 177.429688 126.6875 C 176.070312 125.96875 174.59375 125.449219 173.078125 125.308594 C 171.5625 125.171875 170.085938 125.433594 168.851562 126.023438 C 168.234375 126.316406 167.683594 126.695312 167.226562 127.128906 C 166.765625 127.566406 166.410156 128.0625 166.15625 128.566406 C 167.8125 126.992188 170.402344 126.53125 172.792969 127.113281 C 173.988281 127.410156 175.175781 127.964844 176.308594 128.671875 C 177.445312 129.378906 178.550781 130.234375 179.664062 131.132812 C 180.777344 132.03125 181.917969 132.976562 183.140625 133.828125 C 184.363281 134.675781 185.675781 135.429688 187.074219 135.921875 C 188.46875 136.40625 189.910156 136.613281 191.253906 136.492188 C 192.601562 136.375 193.828125 135.902344 194.722656 135.214844 C 193.640625 135.542969 192.460938 135.609375 191.277344 135.425781 C 190.097656 135.246094 188.90625 134.832031 187.785156 134.242188 C 186.660156 133.648438 185.570312 132.867188 184.496094 131.996094 C 183.421875 131.121094 182.339844 130.164062 181.1875 129.234375 Z M 181.1875 129.234375 " fill-opacity="1" fill-rule="nonzero"/></g></g></g><g fill="#000000" fill-opacity="1"><g transform="translate(245.647877, 216.605728)"><g><path d="M 12.679688 0 L 18.132812 0 L 23.894531 -15.960938 L 29.703125 0 L 35.15625 0 L 45.042969 -27.351562 C 45.75 -29.347656 46.859375 -31.609375 47.792969 -33.25 L 41.9375 -33.25 C 43.046875 -31.476562 43.933594 -29.394531 43.226562 -27.441406 L 34.226562 -2.570312 L 25.179688 -27.441406 C 24.515625 -29.394531 23.761719 -31.699219 23.71875 -33.25 L 17.023438 -33.25 C 17.953125 -31.609375 19.0625 -29.347656 19.773438 -27.351562 L 22.964844 -18.53125 L 17.203125 -2.570312 L 8.203125 -27.441406 C 7.492188 -29.394531 6.738281 -31.699219 6.695312 -33.25 L 0 -33.25 C 0.976562 -31.609375 2.039062 -29.347656 2.75 -27.351562 Z M 12.679688 0 "/></g></g></g><g fill="#000000" fill-opacity="1"><g transform="translate(297.237407, 216.605728)"><g><path d="M 19.773438 -5.410156 C 19.773438 -7.757812 19.773438 -12.769531 19.773438 -15.738281 C 19.773438 -21.101562 15.648438 -21.722656 11.304688 -21.722656 C 7.359375 -21.722656 2.925781 -21.101562 0 -20.4375 L 3.058594 -16.179688 C 5.585938 -18.265625 8.867188 -20.128906 12.234375 -20.171875 C 16.980469 -20.261719 16.359375 -14.363281 11.96875 -13.253906 C 10.328125 -12.855469 8.554688 -13.210938 6.828125 -13.253906 C 2.792969 -13.34375 0 -10.773438 0 -6.648438 C 0 -2.304688 3.101562 0 6.605469 0 C 10.285156 0 14.320312 -2.570312 15.515625 -7.800781 L 15.515625 -5.851562 C 15.515625 -3.679688 15.5625 -1.90625 16.316406 0 L 20.570312 0 C 19.949219 -1.683594 19.773438 -3.191406 19.773438 -5.410156 Z M 8.246094 -2.351562 C 3.324219 -2.214844 2.351562 -10.417969 8.957031 -11.347656 C 11.261719 -11.660156 14.363281 -11.75 15.515625 -14.007812 C 15.117188 -10.019531 13.476562 -2.484375 8.246094 -2.351562 Z M 8.246094 -2.351562 "/></g></g></g><g fill="#000000" fill-opacity="1"><g transform="translate(321.525262, 216.605728)"><g><path d="M 5.851562 0 C 5.1875 -1.683594 5.054688 -3.191406 5.054688 -5.410156 L 5.054688 -27.839844 C 5.054688 -30.058594 5.1875 -31.566406 5.851562 -33.25 C 3.902344 -33.25 1.949219 -33.25 0 -33.25 C 0.621094 -31.566406 0.796875 -30.058594 0.796875 -27.839844 L 0.796875 -5.761719 C 0.796875 -3.636719 0.84375 -1.90625 1.597656 0 Z M 5.851562 0 "/></g></g></g><g fill="#000000" fill-opacity="1"><g transform="translate(331.098581, 216.605728)"><g><path d="M 9.222656 -3.589844 C 7.492188 -4.699219 9 -6.296875 11.835938 -7.003906 C 13.300781 -7.402344 14.984375 -7.625 16.449219 -8.113281 C 21.191406 -9.707031 21.8125 -14.851562 18.796875 -18.308594 C 16.933594 -20.4375 13.964844 -21.722656 10.863281 -21.722656 C 4.875 -21.722656 0 -16.847656 0 -10.863281 C 0 -4.875 4.875 0 10.863281 0 C 15.117188 0 18.839844 -2.4375 20.613281 -6.03125 L 19.773438 -7.183594 C 18.089844 -3.28125 12.988281 -1.195312 9.222656 -3.589844 Z M 6.828125 -5.363281 C 6.207031 -5.984375 5.675781 -6.695312 5.1875 -7.535156 C 2.570312 -11.96875 2.96875 -17.066406 6.117188 -18.886719 C 7.269531 -19.550781 8.554688 -19.683594 9.796875 -19.507812 C 12.546875 -19.019531 15.382812 -16.847656 16.179688 -14.140625 C 16.714844 -12.324219 16.226562 -10.460938 14.140625 -9.574219 C 11.660156 -8.554688 8.15625 -8.070312 6.828125 -5.363281 Z M 6.828125 -5.363281 "/></g></g></g><g fill="#000000" fill-opacity="1"><g transform="translate(31.917148, 110.306397)"><g><path d="M 0.609375 -7.5 L 1.546875 -7.5 L 1.28125 -4.84375 L 0.40625 -4.84375 Z M 2.671875 -7.5 L 3.609375 -7.5 L 3.34375 -4.84375 L 2.46875 -4.84375 Z M 2.671875 -7.5 "/></g></g></g><g fill="#000000" fill-opacity="1"><g transform="translate(35.921829, 110.306397)"><g><path d="M 6.203125 -2.328125 L 7.765625 -6.546875 L 8.828125 -6.546875 L 6.28125 0 L 6.15625 0 L 4.375 -4.234375 L 2.59375 -0.015625 L 2.46875 -0.015625 L -0.078125 -6.546875 L 0.984375 -6.546875 L 2.5625 -2.328125 L 4.359375 -6.578125 L 4.40625 -6.578125 Z M 6.203125 -2.328125 "/></g></g></g><g fill="#000000" fill-opacity="1"><g transform="translate(44.669831, 110.306397)"><g><path d="M 2.5625 0.09375 C 2.070312 0.09375 1.664062 0 1.34375 -0.1875 C 1.019531 -0.382812 0.78125 -0.644531 0.625 -0.96875 C 0.46875 -1.289062 0.390625 -1.648438 0.390625 -2.046875 C 0.390625 -2.472656 0.476562 -2.847656 0.65625 -3.171875 C 0.84375 -3.503906 1.09375 -3.753906 1.40625 -3.921875 C 1.726562 -4.097656 2.09375 -4.1875 2.5 -4.1875 C 3.132812 -4.1875 3.601562 -4.015625 3.90625 -3.671875 C 4.207031 -3.328125 4.359375 -2.835938 4.359375 -2.203125 C 4.359375 -2.046875 4.351562 -1.878906 4.34375 -1.703125 L 1.390625 -1.703125 C 1.460938 -1.347656 1.59375 -1.085938 1.78125 -0.921875 C 1.976562 -0.765625 2.25 -0.6875 2.59375 -0.6875 C 2.875 -0.6875 3.109375 -0.707031 3.296875 -0.75 C 3.484375 -0.800781 3.648438 -0.867188 3.796875 -0.953125 L 4.09375 -0.265625 C 3.945312 -0.171875 3.742188 -0.0859375 3.484375 -0.015625 C 3.234375 0.0546875 2.925781 0.09375 2.5625 0.09375 Z M 3.421875 -2.375 C 3.429688 -2.75 3.351562 -3.007812 3.1875 -3.15625 C 3.019531 -3.3125 2.78125 -3.390625 2.46875 -3.390625 C 1.851562 -3.390625 1.492188 -3.050781 1.390625 -2.375 Z M 3.421875 -2.375 "/></g></g></g><g fill="#000000" fill-opacity="1"><g transform="translate(49.40426, 110.306397)"><g/></g></g><g fill="#000000" fill-opacity="1"><g transform="translate(51.584591, 110.306397)"><g><path d="M 6.203125 -2.328125 L 7.765625 -6.546875 L 8.828125 -6.546875 L 6.28125 0 L 6.15625 0 L 4.375 -4.234375 L 2.59375 -0.015625 L 2.46875 -0.015625 L -0.078125 -6.546875 L 0.984375 -6.546875 L 2.5625 -2.328125 L 4.359375 -6.578125 L 4.40625 -6.578125 Z M 6.203125 -2.328125 "/></g></g></g><g fill="#000000" fill-opacity="1"><g transform="translate(60.332594, 110.306397)"><g><path d="M 0.703125 -4.09375 L 1.703125 -4.09375 L 1.703125 0 L 0.703125 0 Z M 1.1875 -4.859375 C 1 -4.859375 0.84375 -4.921875 0.71875 -5.046875 C 0.59375 -5.171875 0.53125 -5.320312 0.53125 -5.5 C 0.53125 -5.664062 0.59375 -5.804688 0.71875 -5.921875 C 0.84375 -6.046875 1 -6.109375 1.1875 -6.109375 C 1.363281 -6.109375 1.515625 -6.046875 1.640625 -5.921875 C 1.765625 -5.804688 1.828125 -5.664062 1.828125 -5.5 C 1.828125 -5.320312 1.765625 -5.171875 1.640625 -5.046875 C 1.523438 -4.921875 1.375 -4.859375 1.1875 -4.859375 Z M 1.1875 -4.859375 "/></g></g></g><g fill="#000000" fill-opacity="1"><g transform="translate(62.735402, 110.306397)"><g><path d="M 0.71875 -6.546875 L 1.671875 -6.546875 L 1.671875 0 L 0.71875 0 Z M 0.71875 -6.546875 "/></g></g></g><g fill="#000000" fill-opacity="1"><g transform="translate(65.120413, 110.306397)"><g><path d="M 0.71875 -6.546875 L 1.671875 -6.546875 L 1.671875 0 L 0.71875 0 Z M 0.71875 -6.546875 "/></g></g></g><g fill="#000000" fill-opacity="1"><g transform="translate(67.505425, 110.306397)"><g/></g></g><g fill="#000000" fill-opacity="1"><g transform="translate(69.685756, 110.306397)"><g><path d="M 0.6875 -6.546875 L 2.265625 -6.546875 C 3.585938 -6.546875 4.507812 -6.234375 5.03125 -5.609375 C 5.5625 -4.984375 5.828125 -4.242188 5.828125 -3.390625 C 5.828125 -2.785156 5.710938 -2.226562 5.484375 -1.71875 C 5.253906 -1.21875 4.878906 -0.804688 4.359375 -0.484375 C 3.847656 -0.160156 3.171875 0 2.328125 0 L 0.6875 0 Z M 2.4375 -0.875 C 3.25 -0.875 3.84375 -1.109375 4.21875 -1.578125 C 4.59375 -2.046875 4.78125 -2.632812 4.78125 -3.34375 C 4.78125 -4.03125 4.59375 -4.585938 4.21875 -5.015625 C 3.84375 -5.453125 3.25 -5.671875 2.4375 -5.671875 L 1.6875 -5.671875 L 1.6875 -0.875 Z M 2.4375 -0.875 "/></g></g></g><g fill="#000000" fill-opacity="1"><g transform="translate(75.808473, 110.306397)"><g><path d="M 2.5625 0.09375 C 2.070312 0.09375 1.664062 0 1.34375 -0.1875 C 1.019531 -0.382812 0.78125 -0.644531 0.625 -0.96875 C 0.46875 -1.289062 0.390625 -1.648438 0.390625 -2.046875 C 0.390625 -2.472656 0.476562 -2.847656 0.65625 -3.171875 C 0.84375 -3.503906 1.09375 -3.753906 1.40625 -3.921875 C 1.726562 -4.097656 2.09375 -4.1875 2.5 -4.1875 C 3.132812 -4.1875 3.601562 -4.015625 3.90625 -3.671875 C 4.207031 -3.328125 4.359375 -2.835938 4.359375 -2.203125 C 4.359375 -2.046875 4.351562 -1.878906 4.34375 -1.703125 L 1.390625 -1.703125 C 1.460938 -1.347656 1.59375 -1.085938 1.78125 -0.921875 C 1.976562 -0.765625 2.25 -0.6875 2.59375 -0.6875 C 2.875 -0.6875 3.109375 -0.707031 3.296875 -0.75 C 3.484375 -0.800781 3.648438 -0.867188 3.796875 -0.953125 L 4.09375 -0.265625 C 3.945312 -0.171875 3.742188 -0.0859375 3.484375 -0.015625 C 3.234375 0.0546875 2.925781 0.09375 2.5625 0.09375 Z M 3.421875 -2.375 C 3.429688 -2.75 3.351562 -3.007812 3.1875 -3.15625 C 3.019531 -3.3125 2.78125 -3.390625 2.46875 -3.390625 C 1.851562 -3.390625 1.492188 -3.050781 1.390625 -2.375 Z M 3.421875 -2.375 "/></g></g></g><g fill="#000000" fill-opacity="1"><g transform="translate(80.542902, 110.306397)"><g><path d="M 2.046875 0.09375 C 1.753906 0.09375 1.453125 0.0546875 1.140625 -0.015625 C 0.835938 -0.0976562 0.625 -0.1875 0.5 -0.28125 L 0.8125 -1.046875 C 1.175781 -0.796875 1.585938 -0.671875 2.046875 -0.671875 C 2.492188 -0.671875 2.71875 -0.800781 2.71875 -1.0625 C 2.71875 -1.1875 2.671875 -1.28125 2.578125 -1.34375 C 2.484375 -1.40625 2.316406 -1.484375 2.078125 -1.578125 L 1.734375 -1.703125 C 1.378906 -1.847656 1.097656 -2.019531 0.890625 -2.21875 C 0.679688 -2.414062 0.578125 -2.675781 0.578125 -3 C 0.578125 -3.375 0.722656 -3.664062 1.015625 -3.875 C 1.304688 -4.082031 1.703125 -4.1875 2.203125 -4.1875 C 2.441406 -4.1875 2.675781 -4.160156 2.90625 -4.109375 C 3.144531 -4.054688 3.328125 -3.988281 3.453125 -3.90625 L 3.109375 -3.140625 C 3.035156 -3.222656 2.910156 -3.289062 2.734375 -3.34375 C 2.566406 -3.394531 2.378906 -3.421875 2.171875 -3.421875 C 1.753906 -3.421875 1.546875 -3.296875 1.546875 -3.046875 C 1.546875 -2.898438 1.597656 -2.789062 1.703125 -2.71875 C 1.816406 -2.644531 2.003906 -2.5625 2.265625 -2.46875 C 2.285156 -2.46875 2.375 -2.4375 2.53125 -2.375 C 2.914062 -2.226562 3.195312 -2.054688 3.375 -1.859375 C 3.5625 -1.671875 3.65625 -1.429688 3.65625 -1.140625 C 3.65625 -0.734375 3.503906 -0.425781 3.203125 -0.21875 C 2.898438 -0.0078125 2.515625 0.09375 2.046875 0.09375 Z M 2.046875 0.09375 "/></g></g></g><g fill="#000000" fill-opacity="1"><g transform="translate(84.565379, 110.306397)"><g><path d="M 0.703125 -4.09375 L 1.703125 -4.09375 L 1.703125 0 L 0.703125 0 Z M 1.1875 -4.859375 C 1 -4.859375 0.84375 -4.921875 0.71875 -5.046875 C 0.59375 -5.171875 0.53125 -5.320312 0.53125 -5.5 C 0.53125 -5.664062 0.59375 -5.804688 0.71875 -5.921875 C 0.84375 -6.046875 1 -6.109375 1.1875 -6.109375 C 1.363281 -6.109375 1.515625 -6.046875 1.640625 -5.921875 C 1.765625 -5.804688 1.828125 -5.664062 1.828125 -5.5 C 1.828125 -5.320312 1.765625 -5.171875 1.640625 -5.046875 C 1.523438 -4.921875 1.375 -4.859375 1.1875 -4.859375 Z M 1.1875 -4.859375 "/></g></g></g><g fill="#000000" fill-opacity="1"><g transform="translate(86.968187, 110.306397)"><g><path d="M 2.625 2.140625 C 2.320312 2.140625 2.019531 2.097656 1.71875 2.015625 C 1.425781 1.929688 1.21875 1.851562 1.09375 1.78125 L 1.3125 0.890625 C 1.695312 1.148438 2.125 1.28125 2.59375 1.28125 C 2.945312 1.28125 3.242188 1.191406 3.484375 1.015625 C 3.734375 0.835938 3.859375 0.503906 3.859375 0.015625 L 3.859375 -0.71875 C 3.734375 -0.488281 3.53125 -0.296875 3.25 -0.140625 C 2.976562 0.015625 2.671875 0.09375 2.328125 0.09375 C 1.972656 0.09375 1.644531 0.00390625 1.34375 -0.171875 C 1.050781 -0.347656 0.816406 -0.597656 0.640625 -0.921875 C 0.472656 -1.253906 0.390625 -1.632812 0.390625 -2.0625 C 0.390625 -2.476562 0.46875 -2.847656 0.625 -3.171875 C 0.789062 -3.492188 1.023438 -3.742188 1.328125 -3.921875 C 1.640625 -4.097656 1.992188 -4.1875 2.390625 -4.1875 C 2.628906 -4.1875 2.851562 -4.144531 3.0625 -4.0625 C 3.269531 -3.988281 3.445312 -3.890625 3.59375 -3.765625 C 3.738281 -3.640625 3.835938 -3.519531 3.890625 -3.40625 L 3.90625 -4.09375 L 4.8125 -4.09375 L 4.8125 -0.03125 C 4.8125 0.664062 4.628906 1.203125 4.265625 1.578125 C 3.910156 1.953125 3.363281 2.140625 2.625 2.140625 Z M 2.59375 -0.71875 C 2.9375 -0.71875 3.222656 -0.832031 3.453125 -1.0625 C 3.679688 -1.300781 3.796875 -1.613281 3.796875 -2 L 3.796875 -2.0625 C 3.796875 -2.3125 3.742188 -2.535156 3.640625 -2.734375 C 3.535156 -2.941406 3.390625 -3.101562 3.203125 -3.21875 C 3.023438 -3.332031 2.820312 -3.390625 2.59375 -3.390625 C 2.21875 -3.390625 1.925781 -3.265625 1.71875 -3.015625 C 1.507812 -2.765625 1.40625 -2.445312 1.40625 -2.0625 C 1.40625 -1.65625 1.503906 -1.328125 1.703125 -1.078125 C 1.910156 -0.835938 2.207031 -0.71875 2.59375 -0.71875 Z M 2.59375 -0.71875 "/></g></g></g><g fill="#000000" fill-opacity="1"><g transform="translate(92.37006, 110.306397)"><g><path d="M 0.625 -4.09375 L 1.578125 -4.09375 L 1.578125 -3.34375 C 1.691406 -3.59375 1.867188 -3.796875 2.109375 -3.953125 C 2.359375 -4.109375 2.644531 -4.1875 2.96875 -4.1875 C 3.394531 -4.1875 3.71875 -4.097656 3.9375 -3.921875 C 4.164062 -3.753906 4.316406 -3.507812 4.390625 -3.1875 C 4.472656 -2.875 4.515625 -2.46875 4.515625 -1.96875 L 4.515625 0 L 3.546875 0 L 3.546875 -1.9375 C 3.546875 -2.457031 3.492188 -2.832031 3.390625 -3.0625 C 3.296875 -3.289062 3.09375 -3.40625 2.78125 -3.40625 C 2.601562 -3.40625 2.421875 -3.347656 2.234375 -3.234375 C 2.046875 -3.128906 1.890625 -2.972656 1.765625 -2.765625 C 1.648438 -2.554688 1.59375 -2.3125 1.59375 -2.03125 L 1.59375 0 L 0.625 0 Z M 0.625 -4.09375 "/></g></g></g><g fill="#000000" fill-opacity="1"><g transform="translate(97.487149, 110.306397)"><g/></g></g><g fill="#000000" fill-opacity="1"><g transform="translate(99.66748, 110.306397)"><g><path d="M 2.125 -3.0625 L -0.140625 -6.546875 L 1.046875 -6.546875 L 2.625 -3.96875 L 4.203125 -6.546875 L 5.390625 -6.546875 L 3.125 -3.03125 L 3.125 0 L 2.125 0 Z M 2.125 -3.0625 "/></g></g></g><g fill="#000000" fill-opacity="1"><g transform="translate(104.909169, 110.306397)"><g><path d="M 2.53125 0.09375 C 2.113281 0.09375 1.738281 0 1.40625 -0.1875 C 1.082031 -0.382812 0.832031 -0.644531 0.65625 -0.96875 C 0.476562 -1.289062 0.390625 -1.65625 0.390625 -2.0625 C 0.390625 -2.445312 0.476562 -2.800781 0.65625 -3.125 C 0.832031 -3.457031 1.082031 -3.71875 1.40625 -3.90625 C 1.726562 -4.09375 2.101562 -4.1875 2.53125 -4.1875 C 2.957031 -4.1875 3.332031 -4.09375 3.65625 -3.90625 C 3.988281 -3.71875 4.238281 -3.457031 4.40625 -3.125 C 4.582031 -2.800781 4.671875 -2.445312 4.671875 -2.0625 C 4.671875 -1.65625 4.582031 -1.289062 4.40625 -0.96875 C 4.226562 -0.644531 3.976562 -0.382812 3.65625 -0.1875 C 3.332031 0 2.957031 0.09375 2.53125 0.09375 Z M 2.5625 -0.6875 C 2.90625 -0.6875 3.175781 -0.8125 3.375 -1.0625 C 3.570312 -1.320312 3.671875 -1.648438 3.671875 -2.046875 C 3.671875 -2.429688 3.5625 -2.753906 3.34375 -3.015625 C 3.132812 -3.273438 2.859375 -3.40625 2.515625 -3.40625 C 2.171875 -3.40625 1.894531 -3.273438 1.6875 -3.015625 C 1.488281 -2.753906 1.390625 -2.429688 1.390625 -2.046875 C 1.390625 -1.660156 1.5 -1.335938 1.71875 -1.078125 C 1.9375 -0.816406 2.21875 -0.6875 2.5625 -0.6875 Z M 2.5625 -0.6875 "/></g></g></g><g fill="#000000" fill-opacity="1"><g transform="translate(109.972868, 110.306397)"><g><path d="M 2.046875 0.09375 C 1.484375 0.09375 1.09375 -0.0703125 0.875 -0.40625 C 0.664062 -0.738281 0.5625 -1.203125 0.5625 -1.796875 L 0.5625 -4.09375 L 1.53125 -4.09375 L 1.53125 -2.046875 C 1.53125 -1.703125 1.546875 -1.4375 1.578125 -1.25 C 1.617188 -1.0625 1.695312 -0.921875 1.8125 -0.828125 C 1.9375 -0.742188 2.113281 -0.703125 2.34375 -0.703125 C 2.507812 -0.703125 2.671875 -0.75 2.828125 -0.84375 C 2.984375 -0.9375 3.109375 -1.066406 3.203125 -1.234375 C 3.296875 -1.398438 3.34375 -1.578125 3.34375 -1.765625 L 3.34375 -4.09375 L 4.296875 -4.09375 L 4.296875 0 L 3.515625 0 L 3.40625 -0.59375 C 3.257812 -0.363281 3.070312 -0.191406 2.84375 -0.078125 C 2.625 0.0351562 2.359375 0.09375 2.046875 0.09375 Z M 2.046875 0.09375 "/></g></g></g><g fill="#000000" fill-opacity="1"><g transform="translate(114.92087, 110.306397)"><g><path d="M 0.609375 -4.09375 L 1.5625 -4.09375 L 1.5625 -3.28125 C 1.65625 -3.5625 1.804688 -3.78125 2.015625 -3.9375 C 2.234375 -4.101562 2.484375 -4.1875 2.765625 -4.1875 C 2.953125 -4.1875 3.082031 -4.171875 3.15625 -4.140625 L 3.015625 -3.171875 C 2.960938 -3.203125 2.847656 -3.21875 2.671875 -3.21875 C 2.390625 -3.21875 2.132812 -3.128906 1.90625 -2.953125 C 1.675781 -2.773438 1.5625 -2.492188 1.5625 -2.109375 L 1.5625 0 L 0.609375 0 Z M 0.609375 -4.09375 "/></g></g></g><g fill="#000000" fill-opacity="1"><g transform="translate(118.115722, 110.306397)"><g/></g></g><g fill="#000000" fill-opacity="1"><g transform="translate(120.296053, 110.306397)"><g><path d="M 0.8125 -6.546875 L 1.8125 -6.546875 L 1.8125 0 L 0.8125 0 Z M 0.8125 -6.546875 "/></g></g></g><g fill="#000000" fill-opacity="1"><g transform="translate(122.912446, 110.306397)"><g><path d="M 0.625 -4.09375 L 1.59375 -4.09375 L 1.59375 -3.34375 C 1.726562 -3.625 1.921875 -3.832031 2.171875 -3.96875 C 2.421875 -4.113281 2.707031 -4.1875 3.03125 -4.1875 C 3.757812 -4.1875 4.207031 -3.9375 4.375 -3.4375 C 4.507812 -3.664062 4.707031 -3.847656 4.96875 -3.984375 C 5.226562 -4.117188 5.503906 -4.1875 5.796875 -4.1875 C 6.222656 -4.1875 6.546875 -4.101562 6.765625 -3.9375 C 6.984375 -3.78125 7.128906 -3.550781 7.203125 -3.25 C 7.285156 -2.957031 7.328125 -2.554688 7.328125 -2.046875 L 7.328125 0 L 6.34375 0 L 6.34375 -2.0625 C 6.34375 -2.539062 6.296875 -2.882812 6.203125 -3.09375 C 6.109375 -3.300781 5.921875 -3.40625 5.640625 -3.40625 C 5.265625 -3.40625 4.976562 -3.273438 4.78125 -3.015625 C 4.59375 -2.765625 4.5 -2.4375 4.5 -2.03125 L 4.5 0 L 3.53125 0 L 3.53125 -2.203125 C 3.53125 -2.515625 3.519531 -2.75 3.5 -2.90625 C 3.476562 -3.0625 3.410156 -3.179688 3.296875 -3.265625 C 3.191406 -3.359375 3.019531 -3.40625 2.78125 -3.40625 C 2.570312 -3.40625 2.378906 -3.34375 2.203125 -3.21875 C 2.023438 -3.09375 1.878906 -2.921875 1.765625 -2.703125 C 1.660156 -2.492188 1.609375 -2.269531 1.609375 -2.03125 L 1.609375 0 L 0.625 0 Z M 0.625 -4.09375 "/></g></g></g><g fill="#000000" fill-opacity="1"><g transform="translate(130.823918, 110.306397)"><g><path d="M 2.4375 0.09375 C 2.070312 0.09375 1.734375 0.00390625 1.421875 -0.171875 C 1.109375 -0.347656 0.859375 -0.597656 0.671875 -0.921875 C 0.484375 -1.242188 0.390625 -1.625 0.390625 -2.0625 C 0.390625 -2.488281 0.46875 -2.859375 0.625 -3.171875 C 0.789062 -3.492188 1.023438 -3.742188 1.328125 -3.921875 C 1.640625 -4.097656 2 -4.1875 2.40625 -4.1875 C 2.644531 -4.1875 2.867188 -4.144531 3.078125 -4.0625 C 3.285156 -3.988281 3.457031 -3.890625 3.59375 -3.765625 C 3.738281 -3.640625 3.835938 -3.519531 3.890625 -3.40625 L 3.90625 -4.09375 L 4.8125 -4.09375 L 4.8125 0 L 3.90625 0 L 3.890625 -0.71875 C 3.785156 -0.507812 3.597656 -0.320312 3.328125 -0.15625 C 3.066406 0.0078125 2.769531 0.09375 2.4375 0.09375 Z M 2.59375 -0.71875 C 2.9375 -0.71875 3.222656 -0.832031 3.453125 -1.0625 C 3.679688 -1.300781 3.796875 -1.609375 3.796875 -1.984375 L 3.796875 -2.046875 C 3.796875 -2.304688 3.742188 -2.535156 3.640625 -2.734375 C 3.535156 -2.929688 3.390625 -3.085938 3.203125 -3.203125 C 3.023438 -3.316406 2.820312 -3.375 2.59375 -3.375 C 2.21875 -3.375 1.925781 -3.25 1.71875 -3 C 1.507812 -2.757812 1.40625 -2.441406 1.40625 -2.046875 C 1.40625 -1.648438 1.503906 -1.328125 1.703125 -1.078125 C 1.910156 -0.835938 2.207031 -0.71875 2.59375 -0.71875 Z M 2.59375 -0.71875 "/></g></g></g><g fill="#000000" fill-opacity="1"><g transform="translate(136.296989, 110.306397)"><g><path d="M 2.625 2.140625 C 2.320312 2.140625 2.019531 2.097656 1.71875 2.015625 C 1.425781 1.929688 1.21875 1.851562 1.09375 1.78125 L 1.3125 0.890625 C 1.695312 1.148438 2.125 1.28125 2.59375 1.28125 C 2.945312 1.28125 3.242188 1.191406 3.484375 1.015625 C 3.734375 0.835938 3.859375 0.503906 3.859375 0.015625 L 3.859375 -0.71875 C 3.734375 -0.488281 3.53125 -0.296875 3.25 -0.140625 C 2.976562 0.015625 2.671875 0.09375 2.328125 0.09375 C 1.972656 0.09375 1.644531 0.00390625 1.34375 -0.171875 C 1.050781 -0.347656 0.816406 -0.597656 0.640625 -0.921875 C 0.472656 -1.253906 0.390625 -1.632812 0.390625 -2.0625 C 0.390625 -2.476562 0.46875 -2.847656 0.625 -3.171875 C 0.789062 -3.492188 1.023438 -3.742188 1.328125 -3.921875 C 1.640625 -4.097656 1.992188 -4.1875 2.390625 -4.1875 C 2.628906 -4.1875 2.851562 -4.144531 3.0625 -4.0625 C 3.269531 -3.988281 3.445312 -3.890625 3.59375 -3.765625 C 3.738281 -3.640625 3.835938 -3.519531 3.890625 -3.40625 L 3.90625 -4.09375 L 4.8125 -4.09375 L 4.8125 -0.03125 C 4.8125 0.664062 4.628906 1.203125 4.265625 1.578125 C 3.910156 1.953125 3.363281 2.140625 2.625 2.140625 Z M 2.59375 -0.71875 C 2.9375 -0.71875 3.222656 -0.832031 3.453125 -1.0625 C 3.679688 -1.300781 3.796875 -1.613281 3.796875 -2 L 3.796875 -2.0625 C 3.796875 -2.3125 3.742188 -2.535156 3.640625 -2.734375 C 3.535156 -2.941406 3.390625 -3.101562 3.203125 -3.21875 C 3.023438 -3.332031 2.820312 -3.390625 2.59375 -3.390625 C 2.21875 -3.390625 1.925781 -3.265625 1.71875 -3.015625 C 1.507812 -2.765625 1.40625 -2.445312 1.40625 -2.0625 C 1.40625 -1.65625 1.503906 -1.328125 1.703125 -1.078125 C 1.910156 -0.835938 2.207031 -0.71875 2.59375 -0.71875 Z M 2.59375 -0.71875 "/></g></g></g><g fill="#000000" fill-opacity="1"><g transform="translate(141.698861, 110.306397)"><g><path d="M 0.703125 -4.09375 L 1.703125 -4.09375 L 1.703125 0 L 0.703125 0 Z M 1.1875 -4.859375 C 1 -4.859375 0.84375 -4.921875 0.71875 -5.046875 C 0.59375 -5.171875 0.53125 -5.320312 0.53125 -5.5 C 0.53125 -5.664062 0.59375 -5.804688 0.71875 -5.921875 C 0.84375 -6.046875 1 -6.109375 1.1875 -6.109375 C 1.363281 -6.109375 1.515625 -6.046875 1.640625 -5.921875 C 1.765625 -5.804688 1.828125 -5.664062 1.828125 -5.5 C 1.828125 -5.320312 1.765625 -5.171875 1.640625 -5.046875 C 1.523438 -4.921875 1.375 -4.859375 1.1875 -4.859375 Z M 1.1875 -4.859375 "/></g></g></g><g fill="#000000" fill-opacity="1"><g transform="translate(144.10167, 110.306397)"><g><path d="M 0.625 -4.09375 L 1.578125 -4.09375 L 1.578125 -3.34375 C 1.691406 -3.59375 1.867188 -3.796875 2.109375 -3.953125 C 2.359375 -4.109375 2.644531 -4.1875 2.96875 -4.1875 C 3.394531 -4.1875 3.71875 -4.097656 3.9375 -3.921875 C 4.164062 -3.753906 4.316406 -3.507812 4.390625 -3.1875 C 4.472656 -2.875 4.515625 -2.46875 4.515625 -1.96875 L 4.515625 0 L 3.546875 0 L 3.546875 -1.9375 C 3.546875 -2.457031 3.492188 -2.832031 3.390625 -3.0625 C 3.296875 -3.289062 3.09375 -3.40625 2.78125 -3.40625 C 2.601562 -3.40625 2.421875 -3.347656 2.234375 -3.234375 C 2.046875 -3.128906 1.890625 -2.972656 1.765625 -2.765625 C 1.648438 -2.554688 1.59375 -2.3125 1.59375 -2.03125 L 1.59375 0 L 0.625 0 Z M 0.625 -4.09375 "/></g></g></g><g fill="#000000" fill-opacity="1"><g transform="translate(149.218759, 110.306397)"><g><path d="M 2.4375 0.09375 C 2.070312 0.09375 1.734375 0.00390625 1.421875 -0.171875 C 1.109375 -0.347656 0.859375 -0.597656 0.671875 -0.921875 C 0.484375 -1.242188 0.390625 -1.625 0.390625 -2.0625 C 0.390625 -2.488281 0.46875 -2.859375 0.625 -3.171875 C 0.789062 -3.492188 1.023438 -3.742188 1.328125 -3.921875 C 1.640625 -4.097656 2 -4.1875 2.40625 -4.1875 C 2.644531 -4.1875 2.867188 -4.144531 3.078125 -4.0625 C 3.285156 -3.988281 3.457031 -3.890625 3.59375 -3.765625 C 3.738281 -3.640625 3.835938 -3.519531 3.890625 -3.40625 L 3.90625 -4.09375 L 4.8125 -4.09375 L 4.8125 0 L 3.90625 0 L 3.890625 -0.71875 C 3.785156 -0.507812 3.597656 -0.320312 3.328125 -0.15625 C 3.066406 0.0078125 2.769531 0.09375 2.4375 0.09375 Z M 2.59375 -0.71875 C 2.9375 -0.71875 3.222656 -0.832031 3.453125 -1.0625 C 3.679688 -1.300781 3.796875 -1.609375 3.796875 -1.984375 L 3.796875 -2.046875 C 3.796875 -2.304688 3.742188 -2.535156 3.640625 -2.734375 C 3.535156 -2.929688 3.390625 -3.085938 3.203125 -3.203125 C 3.023438 -3.316406 2.820312 -3.375 2.59375 -3.375 C 2.21875 -3.375 1.925781 -3.25 1.71875 -3 C 1.507812 -2.757812 1.40625 -2.441406 1.40625 -2.046875 C 1.40625 -1.648438 1.503906 -1.328125 1.703125 -1.078125 C 1.910156 -0.835938 2.207031 -0.71875 2.59375 -0.71875 Z M 2.59375 -0.71875 "/></g></g></g><g fill="#000000" fill-opacity="1"><g transform="translate(154.69183, 110.306397)"><g><path d="M 0.984375 -3.296875 L 0.265625 -3.296875 L 0.265625 -4.09375 L 0.984375 -4.09375 L 0.984375 -5.75 L 1.953125 -5.96875 L 1.953125 -4.09375 L 2.90625 -4.09375 L 2.90625 -3.296875 L 1.953125 -3.296875 L 1.953125 0 L 0.984375 0 Z M 0.984375 -3.296875 "/></g></g></g><g fill="#000000" fill-opacity="1"><g transform="translate(157.744284, 110.306397)"><g><path d="M 0.703125 -4.09375 L 1.703125 -4.09375 L 1.703125 0 L 0.703125 0 Z M 1.1875 -4.859375 C 1 -4.859375 0.84375 -4.921875 0.71875 -5.046875 C 0.59375 -5.171875 0.53125 -5.320312 0.53125 -5.5 C 0.53125 -5.664062 0.59375 -5.804688 0.71875 -5.921875 C 0.84375 -6.046875 1 -6.109375 1.1875 -6.109375 C 1.363281 -6.109375 1.515625 -6.046875 1.640625 -5.921875 C 1.765625 -5.804688 1.828125 -5.664062 1.828125 -5.5 C 1.828125 -5.320312 1.765625 -5.171875 1.640625 -5.046875 C 1.523438 -4.921875 1.375 -4.859375 1.1875 -4.859375 Z M 1.1875 -4.859375 "/></g></g></g><g fill="#000000" fill-opacity="1"><g transform="translate(160.147092, 110.306397)"><g><path d="M 2.53125 0.09375 C 2.113281 0.09375 1.738281 0 1.40625 -0.1875 C 1.082031 -0.382812 0.832031 -0.644531 0.65625 -0.96875 C 0.476562 -1.289062 0.390625 -1.65625 0.390625 -2.0625 C 0.390625 -2.445312 0.476562 -2.800781 0.65625 -3.125 C 0.832031 -3.457031 1.082031 -3.71875 1.40625 -3.90625 C 1.726562 -4.09375 2.101562 -4.1875 2.53125 -4.1875 C 2.957031 -4.1875 3.332031 -4.09375 3.65625 -3.90625 C 3.988281 -3.71875 4.238281 -3.457031 4.40625 -3.125 C 4.582031 -2.800781 4.671875 -2.445312 4.671875 -2.0625 C 4.671875 -1.65625 4.582031 -1.289062 4.40625 -0.96875 C 4.226562 -0.644531 3.976562 -0.382812 3.65625 -0.1875 C 3.332031 0 2.957031 0.09375 2.53125 0.09375 Z M 2.5625 -0.6875 C 2.90625 -0.6875 3.175781 -0.8125 3.375 -1.0625 C 3.570312 -1.320312 3.671875 -1.648438 3.671875 -2.046875 C 3.671875 -2.429688 3.5625 -2.753906 3.34375 -3.015625 C 3.132812 -3.273438 2.859375 -3.40625 2.515625 -3.40625 C 2.171875 -3.40625 1.894531 -3.273438 1.6875 -3.015625 C 1.488281 -2.753906 1.390625 -2.429688 1.390625 -2.046875 C 1.390625 -1.660156 1.5 -1.335938 1.71875 -1.078125 C 1.9375 -0.816406 2.21875 -0.6875 2.5625 -0.6875 Z M 2.5625 -0.6875 "/></g></g></g><g fill="#000000" fill-opacity="1"><g transform="translate(165.210791, 110.306397)"><g><path d="M 0.625 -4.09375 L 1.578125 -4.09375 L 1.578125 -3.34375 C 1.691406 -3.59375 1.867188 -3.796875 2.109375 -3.953125 C 2.359375 -4.109375 2.644531 -4.1875 2.96875 -4.1875 C 3.394531 -4.1875 3.71875 -4.097656 3.9375 -3.921875 C 4.164062 -3.753906 4.316406 -3.507812 4.390625 -3.1875 C 4.472656 -2.875 4.515625 -2.46875 4.515625 -1.96875 L 4.515625 0 L 3.546875 0 L 3.546875 -1.9375 C 3.546875 -2.457031 3.492188 -2.832031 3.390625 -3.0625 C 3.296875 -3.289062 3.09375 -3.40625 2.78125 -3.40625 C 2.601562 -3.40625 2.421875 -3.347656 2.234375 -3.234375 C 2.046875 -3.128906 1.890625 -2.972656 1.765625 -2.765625 C 1.648438 -2.554688 1.59375 -2.3125 1.59375 -2.03125 L 1.59375 0 L 0.625 0 Z M 0.625 -4.09375 "/></g></g></g><g fill="#000000" fill-opacity="1"><g transform="translate(170.32788, 110.306397)"><g><path d="M 2.203125 0.09375 C 1.847656 0.09375 1.492188 0.03125 1.140625 -0.09375 C 0.785156 -0.21875 0.535156 -0.359375 0.390625 -0.515625 L 0.859375 -1.359375 C 0.984375 -1.242188 1.175781 -1.125 1.4375 -1 C 1.695312 -0.882812 1.953125 -0.828125 2.203125 -0.828125 C 2.515625 -0.828125 2.769531 -0.898438 2.96875 -1.046875 C 3.164062 -1.203125 3.265625 -1.410156 3.265625 -1.671875 C 3.265625 -1.867188 3.210938 -2.039062 3.109375 -2.1875 C 3.003906 -2.332031 2.875 -2.453125 2.71875 -2.546875 C 2.5625 -2.648438 2.34375 -2.773438 2.0625 -2.921875 C 1.71875 -3.085938 1.484375 -3.210938 1.359375 -3.296875 C 0.785156 -3.679688 0.5 -4.21875 0.5 -4.90625 C 0.5 -5.46875 0.6875 -5.894531 1.0625 -6.1875 C 1.4375 -6.488281 1.90625 -6.640625 2.46875 -6.640625 C 3.082031 -6.640625 3.601562 -6.46875 4.03125 -6.125 L 3.5625 -5.3125 C 3.445312 -5.425781 3.285156 -5.523438 3.078125 -5.609375 C 2.878906 -5.703125 2.664062 -5.75 2.4375 -5.75 C 2.132812 -5.75 1.898438 -5.679688 1.734375 -5.546875 C 1.566406 -5.410156 1.484375 -5.210938 1.484375 -4.953125 C 1.484375 -4.765625 1.535156 -4.597656 1.640625 -4.453125 C 1.742188 -4.304688 1.875 -4.179688 2.03125 -4.078125 C 2.195312 -3.972656 2.421875 -3.84375 2.703125 -3.6875 C 2.972656 -3.539062 3.175781 -3.421875 3.3125 -3.328125 C 3.457031 -3.242188 3.59375 -3.144531 3.71875 -3.03125 C 3.894531 -2.875 4.035156 -2.6875 4.140625 -2.46875 C 4.242188 -2.257812 4.296875 -2.023438 4.296875 -1.765625 C 4.296875 -1.367188 4.207031 -1.03125 4.03125 -0.75 C 3.851562 -0.476562 3.601562 -0.269531 3.28125 -0.125 C 2.96875 0.0195312 2.609375 0.09375 2.203125 0.09375 Z M 2.203125 0.09375 "/></g></g></g><g fill="#000000" fill-opacity="1"><g transform="translate(175.000015, 110.306397)"><g><path d="M 0.609375 -7.5 L 1.546875 -7.5 L 1.28125 -4.84375 L 0.40625 -4.84375 Z M 2.671875 -7.5 L 3.609375 -7.5 L 3.34375 -4.84375 L 2.46875 -4.84375 Z M 2.671875 -7.5 "/></g></g></g><g fill="#000000" fill-opacity="1"><g transform="translate(300.603033, 231.036787)"><g><path d="M 2.578125 -2.4375 L 0.390625 -2.4375 L 0.390625 -3 L 2.578125 -3 Z M 2.578125 -2.4375 "/></g></g><g transform="translate(303.57476, 231.036787)"><g><path d="M 2.453125 0.078125 C 2.097656 0.078125 1.78125 0.03125 1.5 -0.0625 C 1.21875 -0.15625 0.984375 -0.28125 0.796875 -0.4375 C 0.609375 -0.59375 0.472656 -0.765625 0.390625 -0.953125 L 0.75 -1.390625 L 0.84375 -1.390625 C 1.1875 -0.804688 1.722656 -0.515625 2.453125 -0.515625 C 2.867188 -0.515625 3.179688 -0.601562 3.390625 -0.78125 C 3.597656 -0.957031 3.703125 -1.203125 3.703125 -1.515625 C 3.703125 -1.691406 3.664062 -1.84375 3.59375 -1.96875 C 3.53125 -2.101562 3.421875 -2.210938 3.265625 -2.296875 C 3.109375 -2.390625 2.894531 -2.472656 2.625 -2.546875 L 1.96875 -2.703125 C 1.476562 -2.816406 1.117188 -3.003906 0.890625 -3.265625 C 0.660156 -3.523438 0.546875 -3.847656 0.546875 -4.234375 C 0.546875 -4.515625 0.613281 -4.765625 0.75 -4.984375 C 0.894531 -5.203125 1.101562 -5.375 1.375 -5.5 C 1.65625 -5.625 1.988281 -5.6875 2.375 -5.6875 C 2.789062 -5.6875 3.144531 -5.625 3.4375 -5.5 C 3.726562 -5.382812 3.960938 -5.207031 4.140625 -4.96875 L 3.8125 -4.53125 L 3.71875 -4.53125 C 3.5625 -4.726562 3.367188 -4.875 3.140625 -4.96875 C 2.921875 -5.0625 2.664062 -5.109375 2.375 -5.109375 C 1.988281 -5.109375 1.695312 -5.03125 1.5 -4.875 C 1.300781 -4.726562 1.203125 -4.519531 1.203125 -4.25 C 1.203125 -4 1.273438 -3.796875 1.421875 -3.640625 C 1.566406 -3.492188 1.8125 -3.382812 2.15625 -3.3125 L 2.828125 -3.140625 C 3.367188 -3.015625 3.757812 -2.816406 4 -2.546875 C 4.25 -2.285156 4.375 -1.953125 4.375 -1.546875 C 4.375 -1.222656 4.300781 -0.941406 4.15625 -0.703125 C 4.007812 -0.460938 3.789062 -0.269531 3.5 -0.125 C 3.21875 0.0078125 2.867188 0.078125 2.453125 0.078125 Z M 2.453125 0.078125 "/></g></g><g transform="translate(308.373181, 231.036787)"><g><path d="M 1.75 0.078125 C 1.332031 0.078125 1.003906 -0.03125 0.765625 -0.25 C 0.535156 -0.46875 0.421875 -0.773438 0.421875 -1.171875 C 0.421875 -1.421875 0.472656 -1.628906 0.578125 -1.796875 C 0.679688 -1.972656 0.835938 -2.113281 1.046875 -2.21875 C 1.265625 -2.332031 1.550781 -2.421875 1.90625 -2.484375 C 2.207031 -2.535156 2.4375 -2.59375 2.59375 -2.65625 C 2.757812 -2.71875 2.867188 -2.785156 2.921875 -2.859375 C 2.972656 -2.941406 3 -3.046875 3 -3.171875 C 3 -3.359375 2.929688 -3.503906 2.796875 -3.609375 C 2.671875 -3.710938 2.460938 -3.765625 2.171875 -3.765625 C 1.898438 -3.765625 1.664062 -3.707031 1.46875 -3.59375 C 1.269531 -3.488281 1.09375 -3.332031 0.9375 -3.125 L 0.859375 -3.125 L 0.546875 -3.5625 C 0.722656 -3.789062 0.945312 -3.972656 1.21875 -4.109375 C 1.5 -4.242188 1.816406 -4.3125 2.171875 -4.3125 C 2.671875 -4.3125 3.035156 -4.203125 3.265625 -3.984375 C 3.503906 -3.765625 3.625 -3.460938 3.625 -3.078125 L 3.625 -0.828125 C 3.625 -0.597656 3.722656 -0.484375 3.921875 -0.484375 C 3.992188 -0.484375 4.0625 -0.492188 4.125 -0.515625 L 4.171875 -0.5 L 4.25 -0.0625 C 4.195312 -0.03125 4.132812 -0.0078125 4.0625 0 C 3.988281 0.0195312 3.910156 0.03125 3.828125 0.03125 C 3.597656 0.03125 3.421875 -0.0195312 3.296875 -0.125 C 3.179688 -0.226562 3.109375 -0.378906 3.078125 -0.578125 L 3 -0.578125 C 2.875 -0.359375 2.707031 -0.191406 2.5 -0.078125 C 2.300781 0.0234375 2.050781 0.078125 1.75 0.078125 Z M 1.875 -0.421875 C 2.113281 -0.421875 2.316406 -0.472656 2.484375 -0.578125 C 2.660156 -0.691406 2.796875 -0.84375 2.890625 -1.03125 C 2.984375 -1.226562 3.03125 -1.457031 3.03125 -1.71875 L 3.03125 -2.25 L 2.953125 -2.265625 C 2.859375 -2.203125 2.742188 -2.144531 2.609375 -2.09375 C 2.472656 -2.050781 2.285156 -2.015625 2.046875 -1.984375 C 1.796875 -1.953125 1.597656 -1.898438 1.453125 -1.828125 C 1.304688 -1.765625 1.203125 -1.675781 1.140625 -1.5625 C 1.085938 -1.457031 1.0625 -1.328125 1.0625 -1.171875 C 1.0625 -0.921875 1.132812 -0.734375 1.28125 -0.609375 C 1.425781 -0.484375 1.625 -0.421875 1.875 -0.421875 Z M 1.875 -0.421875 "/></g></g><g transform="translate(312.742693, 231.036787)"><g><path d="M 2.859375 -0.671875 L 3.0625 -0.21875 C 2.957031 -0.125 2.820312 -0.0507812 2.65625 0 C 2.5 0.0507812 2.328125 0.078125 2.140625 0.078125 C 1.328125 0.078125 0.921875 -0.328125 0.921875 -1.140625 L 0.921875 -3.71875 L 0.1875 -3.71875 L 0.1875 -4.21875 L 0.921875 -4.21875 L 0.921875 -5.125 L 1.546875 -5.21875 L 1.546875 -4.21875 L 2.90625 -4.21875 L 2.90625 -3.71875 L 1.546875 -3.71875 L 1.546875 -1.203125 C 1.546875 -0.722656 1.757812 -0.484375 2.1875 -0.484375 C 2.414062 -0.484375 2.613281 -0.546875 2.78125 -0.671875 Z M 2.859375 -0.671875 "/></g></g><g transform="translate(315.959511, 231.036787)"><g><path d="M 3.578125 -4.21875 L 4.21875 -4.21875 L 2.328125 0.65625 C 2.222656 0.925781 2.101562 1.144531 1.96875 1.3125 C 1.832031 1.476562 1.671875 1.597656 1.484375 1.671875 C 1.304688 1.753906 1.09375 1.796875 0.84375 1.796875 C 0.695312 1.796875 0.5625 1.78125 0.4375 1.75 C 0.320312 1.726562 0.21875 1.695312 0.125 1.65625 L 0.234375 1.15625 L 0.3125 1.140625 C 0.375 1.171875 0.445312 1.195312 0.53125 1.21875 C 0.625 1.238281 0.722656 1.25 0.828125 1.25 C 0.992188 1.25 1.132812 1.222656 1.25 1.171875 C 1.363281 1.128906 1.457031 1.054688 1.53125 0.953125 C 1.613281 0.847656 1.691406 0.703125 1.765625 0.515625 L 1.90625 0.09375 L 0.21875 -4.21875 L 0.890625 -4.21875 L 2.21875 -0.78125 L 2.296875 -0.78125 Z M 3.578125 -4.21875 "/></g></g><g transform="translate(320.413273, 231.036787)"><g><path d="M 1.75 0.078125 C 1.332031 0.078125 1.003906 -0.03125 0.765625 -0.25 C 0.535156 -0.46875 0.421875 -0.773438 0.421875 -1.171875 C 0.421875 -1.421875 0.472656 -1.628906 0.578125 -1.796875 C 0.679688 -1.972656 0.835938 -2.113281 1.046875 -2.21875 C 1.265625 -2.332031 1.550781 -2.421875 1.90625 -2.484375 C 2.207031 -2.535156 2.4375 -2.59375 2.59375 -2.65625 C 2.757812 -2.71875 2.867188 -2.785156 2.921875 -2.859375 C 2.972656 -2.941406 3 -3.046875 3 -3.171875 C 3 -3.359375 2.929688 -3.503906 2.796875 -3.609375 C 2.671875 -3.710938 2.460938 -3.765625 2.171875 -3.765625 C 1.898438 -3.765625 1.664062 -3.707031 1.46875 -3.59375 C 1.269531 -3.488281 1.09375 -3.332031 0.9375 -3.125 L 0.859375 -3.125 L 0.546875 -3.5625 C 0.722656 -3.789062 0.945312 -3.972656 1.21875 -4.109375 C 1.5 -4.242188 1.816406 -4.3125 2.171875 -4.3125 C 2.671875 -4.3125 3.035156 -4.203125 3.265625 -3.984375 C 3.503906 -3.765625 3.625 -3.460938 3.625 -3.078125 L 3.625 -0.828125 C 3.625 -0.597656 3.722656 -0.484375 3.921875 -0.484375 C 3.992188 -0.484375 4.0625 -0.492188 4.125 -0.515625 L 4.171875 -0.5 L 4.25 -0.0625 C 4.195312 -0.03125 4.132812 -0.0078125 4.0625 0 C 3.988281 0.0195312 3.910156 0.03125 3.828125 0.03125 C 3.597656 0.03125 3.421875 -0.0195312 3.296875 -0.125 C 3.179688 -0.226562 3.109375 -0.378906 3.078125 -0.578125 L 3 -0.578125 C 2.875 -0.359375 2.707031 -0.191406 2.5 -0.078125 C 2.300781 0.0234375 2.050781 0.078125 1.75 0.078125 Z M 1.875 -0.421875 C 2.113281 -0.421875 2.316406 -0.472656 2.484375 -0.578125 C 2.660156 -0.691406 2.796875 -0.84375 2.890625 -1.03125 C 2.984375 -1.226562 3.03125 -1.457031 3.03125 -1.71875 L 3.03125 -2.25 L 2.953125 -2.265625 C 2.859375 -2.203125 2.742188 -2.144531 2.609375 -2.09375 C 2.472656 -2.050781 2.285156 -2.015625 2.046875 -1.984375 C 1.796875 -1.953125 1.597656 -1.898438 1.453125 -1.828125 C 1.304688 -1.765625 1.203125 -1.675781 1.140625 -1.5625 C 1.085938 -1.457031 1.0625 -1.328125 1.0625 -1.171875 C 1.0625 -0.921875 1.132812 -0.734375 1.28125 -0.609375 C 1.425781 -0.484375 1.625 -0.421875 1.875 -0.421875 Z M 1.875 -0.421875 "/></g></g><g transform="translate(324.782785, 231.036787)"><g><path d="M 0.734375 0 L 0.734375 -4.21875 L 1.328125 -4.21875 L 1.328125 -3.59375 L 1.40625 -3.578125 C 1.550781 -3.816406 1.722656 -4 1.921875 -4.125 C 2.128906 -4.25 2.375 -4.3125 2.65625 -4.3125 C 2.976562 -4.3125 3.226562 -4.25 3.40625 -4.125 C 3.59375 -4 3.734375 -3.796875 3.828125 -3.515625 L 3.921875 -3.515625 C 4.054688 -3.773438 4.226562 -3.972656 4.4375 -4.109375 C 4.65625 -4.242188 4.921875 -4.3125 5.234375 -4.3125 C 5.671875 -4.3125 5.992188 -4.191406 6.203125 -3.953125 C 6.421875 -3.710938 6.53125 -3.351562 6.53125 -2.875 L 6.53125 0 L 5.90625 0 L 5.90625 -2.859375 C 5.90625 -3.171875 5.835938 -3.398438 5.703125 -3.546875 C 5.578125 -3.691406 5.375 -3.765625 5.09375 -3.765625 C 4.75 -3.765625 4.46875 -3.640625 4.25 -3.390625 C 4.039062 -3.148438 3.9375 -2.75 3.9375 -2.1875 L 3.9375 0 L 3.328125 0 L 3.328125 -2.859375 C 3.328125 -3.171875 3.257812 -3.398438 3.125 -3.546875 C 3 -3.691406 2.789062 -3.765625 2.5 -3.765625 C 2.164062 -3.765625 1.890625 -3.644531 1.671875 -3.40625 C 1.460938 -3.164062 1.359375 -2.78125 1.359375 -2.25 L 1.359375 0 Z M 0.734375 0 "/></g></g><g transform="translate(331.982331, 231.036787)"><g/></g><g transform="translate(333.904763, 231.036787)"><g><path d="M 2.65625 -5.59375 C 3.226562 -5.59375 3.71875 -5.488281 4.125 -5.28125 C 4.53125 -5.082031 4.84375 -4.773438 5.0625 -4.359375 C 5.28125 -3.941406 5.390625 -3.421875 5.390625 -2.796875 C 5.390625 -2.171875 5.28125 -1.648438 5.0625 -1.234375 C 4.84375 -0.816406 4.53125 -0.503906 4.125 -0.296875 C 3.71875 -0.0976562 3.226562 0 2.65625 0 L 0.84375 0 L 0.84375 -5.59375 Z M 2.59375 -0.5625 C 3.0625 -0.5625 3.445312 -0.632812 3.75 -0.78125 C 4.0625 -0.925781 4.296875 -1.160156 4.453125 -1.484375 C 4.609375 -1.816406 4.6875 -2.253906 4.6875 -2.796875 C 4.6875 -3.347656 4.609375 -3.785156 4.453125 -4.109375 C 4.296875 -4.441406 4.0625 -4.679688 3.75 -4.828125 C 3.445312 -4.972656 3.0625 -5.046875 2.59375 -5.046875 L 1.5 -5.046875 L 1.5 -0.5625 Z M 2.59375 -0.5625 "/></g></g><g transform="translate(339.855877, 231.036787)"><g><path d="M 2.09375 0.078125 C 1.613281 0.078125 1.253906 -0.046875 1.015625 -0.296875 C 0.785156 -0.546875 0.671875 -0.914062 0.671875 -1.40625 L 0.671875 -4.21875 L 1.296875 -4.21875 L 1.296875 -1.421875 C 1.296875 -0.785156 1.597656 -0.46875 2.203125 -0.46875 C 2.578125 -0.46875 2.875 -0.59375 3.09375 -0.84375 C 3.320312 -1.09375 3.4375 -1.5 3.4375 -2.0625 L 3.4375 -4.21875 L 4.0625 -4.21875 L 4.0625 0 L 3.46875 0 L 3.46875 -0.65625 L 3.390625 -0.6875 C 3.242188 -0.425781 3.066406 -0.234375 2.859375 -0.109375 C 2.660156 0.015625 2.40625 0.078125 2.09375 0.078125 Z M 2.09375 0.078125 "/></g></g><g transform="translate(344.654297, 231.036787)"><g><path d="M 2.8125 0.078125 C 2.5 0.078125 2.222656 0.0195312 1.984375 -0.09375 C 1.753906 -0.21875 1.570312 -0.378906 1.4375 -0.578125 L 1.359375 -0.5625 L 1.359375 0 L 0.734375 0 L 0.734375 -5.921875 L 1.359375 -5.921875 L 1.359375 -3.59375 L 1.4375 -3.578125 C 1.757812 -4.066406 2.226562 -4.3125 2.84375 -4.3125 C 3.1875 -4.3125 3.488281 -4.226562 3.75 -4.0625 C 4.007812 -3.90625 4.210938 -3.660156 4.359375 -3.328125 C 4.503906 -3.003906 4.578125 -2.597656 4.578125 -2.109375 C 4.578125 -1.628906 4.5 -1.222656 4.34375 -0.890625 C 4.195312 -0.566406 3.988281 -0.320312 3.71875 -0.15625 C 3.457031 0 3.15625 0.078125 2.8125 0.078125 Z M 2.65625 -0.484375 C 3.5 -0.484375 3.921875 -1.023438 3.921875 -2.109375 C 3.921875 -2.671875 3.8125 -3.082031 3.59375 -3.34375 C 3.375 -3.613281 3.0625 -3.75 2.65625 -3.75 C 2.257812 -3.75 1.941406 -3.613281 1.703125 -3.34375 C 1.472656 -3.070312 1.359375 -2.660156 1.359375 -2.109375 C 1.359375 -1.554688 1.472656 -1.144531 1.703125 -0.875 C 1.941406 -0.613281 2.257812 -0.484375 2.65625 -0.484375 Z M 2.65625 -0.484375 "/></g></g><g transform="translate(349.69398, 231.036787)"><g><path d="M 4.03125 -1.96875 L 1.125 -1.96875 C 1.144531 -1.445312 1.269531 -1.066406 1.5 -0.828125 C 1.726562 -0.597656 2.039062 -0.484375 2.4375 -0.484375 C 2.738281 -0.484375 2.976562 -0.535156 3.15625 -0.640625 C 3.34375 -0.742188 3.488281 -0.910156 3.59375 -1.140625 L 3.671875 -1.140625 L 4.078125 -0.90625 C 3.953125 -0.59375 3.753906 -0.347656 3.484375 -0.171875 C 3.222656 -0.00390625 2.875 0.078125 2.4375 0.078125 C 2.019531 0.078125 1.664062 0 1.375 -0.15625 C 1.082031 -0.320312 0.859375 -0.566406 0.703125 -0.890625 C 0.546875 -1.210938 0.46875 -1.617188 0.46875 -2.109375 C 0.46875 -2.585938 0.550781 -2.988281 0.71875 -3.3125 C 0.882812 -3.644531 1.109375 -3.894531 1.390625 -4.0625 C 1.679688 -4.226562 2.015625 -4.3125 2.390625 -4.3125 C 2.929688 -4.3125 3.351562 -4.15625 3.65625 -3.84375 C 3.96875 -3.539062 4.125 -3.085938 4.125 -2.484375 C 4.125 -2.253906 4.117188 -2.097656 4.109375 -2.015625 Z M 3.5 -2.484375 C 3.488281 -2.929688 3.390625 -3.257812 3.203125 -3.46875 C 3.015625 -3.675781 2.742188 -3.78125 2.390625 -3.78125 C 2.023438 -3.78125 1.734375 -3.675781 1.515625 -3.46875 C 1.304688 -3.257812 1.179688 -2.929688 1.140625 -2.484375 Z M 3.5 -2.484375 "/></g></g><g transform="translate(354.197525, 231.036787)"><g><path d="M 3.578125 -4.21875 L 4.21875 -4.21875 L 2.328125 0.65625 C 2.222656 0.925781 2.101562 1.144531 1.96875 1.3125 C 1.832031 1.476562 1.671875 1.597656 1.484375 1.671875 C 1.304688 1.753906 1.09375 1.796875 0.84375 1.796875 C 0.695312 1.796875 0.5625 1.78125 0.4375 1.75 C 0.320312 1.726562 0.21875 1.695312 0.125 1.65625 L 0.234375 1.15625 L 0.3125 1.140625 C 0.375 1.171875 0.445312 1.195312 0.53125 1.21875 C 0.625 1.238281 0.722656 1.25 0.828125 1.25 C 0.992188 1.25 1.132812 1.222656 1.25 1.171875 C 1.363281 1.128906 1.457031 1.054688 1.53125 0.953125 C 1.613281 0.847656 1.691406 0.703125 1.765625 0.515625 L 1.90625 0.09375 L 0.21875 -4.21875 L 0.890625 -4.21875 L 2.21875 -0.78125 L 2.296875 -0.78125 Z M 3.578125 -4.21875 "/></g></g></g></svg>