<svg xmlns="http://www.w3.org/2000/svg" xmlns:xlink="http://www.w3.org/1999/xlink" width="500" zoomAndPan="magnify" viewBox="0 0 375 374.999991" height="500" preserveAspectRatio="xMidYMid meet" version="1.0"><defs><g/><clipPath id="b0f23b5f1f"><path d="M 170 155 L 200 155 L 200 168 L 170 168 Z M 170 155 " clip-rule="nonzero"/></clipPath><clipPath id="dc0d9f8c2a"><path d="M 170.851562 167.863281 L 170.59375 155.867188 L 199.835938 155.238281 L 200.09375 167.234375 Z M 170.851562 167.863281 " clip-rule="nonzero"/></clipPath><clipPath id="fd3adf3539"><path d="M 170.851562 167.863281 L 170.59375 155.867188 L 199.835938 155.238281 L 200.09375 167.234375 Z M 170.851562 167.863281 " clip-rule="nonzero"/></clipPath></defs><rect x="-37.5" width="450" fill="#ffffff" y="-37.499999" height="449.999989" fill-opacity="1"/><rect x="-37.5" width="450" fill="#ffffff" y="-37.499999" height="449.999989" fill-opacity="1"/><rect x="-37.5" width="450" fill="#ffffff" y="-37.499999" height="449.999989" fill-opacity="1"/><g fill="#000000" fill-opacity="1"><g transform="translate(95.397477, 194.102455)"><g><path d="M 0 0 C 4.625 0 9.25 0 13.871094 0 C 23.542969 0 32.230469 -6.027344 32.230469 -17.515625 C 32.230469 -29.007812 23.542969 -35.03125 13.871094 -35.03125 C 9.25 -35.03125 4.625 -35.03125 0 -35.03125 C 0.652344 -33.257812 0.839844 -31.203125 0.839844 -28.820312 C 0.839844 -24.988281 0.839844 -10.042969 0.839844 -6.210938 C 0.839844 -3.832031 0.652344 -1.773438 0 0 Z M 6.210938 -33.210938 L 13.871094 -33.210938 C 20.503906 -33.210938 26.71875 -27.183594 26.71875 -17.515625 C 26.71875 -7.847656 20.503906 -1.820312 13.871094 -1.820312 L 6.210938 -1.820312 Z M 6.210938 -33.210938 "/></g></g></g><g fill="#000000" fill-opacity="1"><g transform="translate(131.591553, 194.102455)"><g><path d="M 9.714844 -3.785156 C 7.894531 -4.949219 9.480469 -6.632812 12.472656 -7.378906 C 14.011719 -7.800781 15.789062 -8.035156 17.328125 -8.546875 C 22.328125 -10.230469 22.980469 -15.648438 19.804688 -19.289062 C 17.84375 -21.53125 14.714844 -22.886719 11.445312 -22.886719 C 5.136719 -22.886719 0 -17.75 0 -11.445312 C 0 -5.136719 5.136719 0 11.445312 0 C 15.925781 0 19.851562 -2.570312 21.71875 -6.351562 L 20.832031 -7.566406 C 19.058594 -3.457031 13.6875 -1.261719 9.714844 -3.785156 Z M 7.191406 -5.652344 C 6.539062 -6.304688 5.980469 -7.054688 5.464844 -7.941406 C 2.710938 -12.613281 3.128906 -17.984375 6.445312 -19.898438 C 7.660156 -20.597656 9.015625 -20.738281 10.324219 -20.550781 C 13.21875 -20.039062 16.207031 -17.75 17.046875 -14.898438 C 17.609375 -12.984375 17.09375 -11.023438 14.898438 -10.089844 C 12.285156 -9.015625 8.59375 -8.5 7.191406 -5.652344 Z M 7.191406 -5.652344 "/></g></g></g><g fill="#000000" fill-opacity="1"><g transform="translate(157.371075, 194.102455)"><g><path d="M 0 -16.769531 C 0.09375 -11.445312 10.136719 -9.855469 15.179688 -7.144531 C 18.121094 -5.558594 19.664062 -2.894531 15.179688 -1.867188 C 13.824219 -1.542969 12.285156 -1.589844 11.257812 -1.773438 C 8.3125 -2.289062 5.511719 -3.96875 3.222656 -5.839844 L 0 -1.355469 C 3.082031 -0.652344 7.753906 0 11.910156 0 C 17.5625 0 20.925781 -2.753906 20.878906 -6.117188 C 20.785156 -11.863281 9.15625 -13.265625 4.578125 -16.394531 C 2.007812 -18.167969 2.335938 -20.273438 5.652344 -21.019531 C 7.007812 -21.347656 8.546875 -21.300781 9.621094 -21.113281 C 12.566406 -20.597656 15.367188 -18.917969 17.65625 -17.046875 L 20.878906 -21.53125 C 17.796875 -22.234375 13.078125 -22.886719 8.96875 -22.886719 C 3.316406 -22.886719 -0.046875 -20.132812 0 -16.769531 Z M 0 -16.769531 "/></g></g></g><g fill="#000000" fill-opacity="1"><g transform="translate(182.309961, 194.102455)"><g><path d="M 5.324219 -5.699219 C 5.324219 -9.527344 5.324219 -13.359375 5.324219 -17.1875 C 5.324219 -19.570312 5.464844 -21.160156 6.164062 -22.886719 C 4.109375 -22.886719 2.054688 -22.886719 0 -22.886719 C 0.652344 -21.160156 0.839844 -19.570312 0.839844 -17.1875 C 0.839844 -13.359375 0.839844 -9.527344 0.839844 -5.699219 C 0.839844 -3.363281 0.652344 -1.773438 0 0 C 2.054688 0 4.109375 0 6.164062 0 C 5.464844 -1.773438 5.324219 -3.363281 5.324219 -5.699219 Z M 3.082031 -28.960938 C 1.820312 -28.960938 0.839844 -27.980469 0.839844 -26.71875 C 0.839844 -25.457031 1.820312 -24.476562 3.082031 -24.476562 C 4.296875 -24.476562 5.324219 -25.457031 5.324219 -26.71875 C 5.324219 -27.980469 4.296875 -28.960938 3.082031 -28.960938 Z M 3.082031 -28.960938 "/></g></g></g><g fill="#000000" fill-opacity="1"><g transform="translate(192.397603, 194.102455)"><g><path d="M 21.394531 0.515625 C 17.84375 1.027344 14.292969 2.710938 11.164062 3.550781 C 3.832031 5.464844 2.894531 1.773438 4.390625 -2.429688 C 6.351562 -0.933594 8.78125 0 11.445312 0 C 17.796875 0 22.886719 -5.136719 22.886719 -11.445312 C 22.886719 -16.207031 19.992188 -20.320312 15.882812 -22.046875 C 18.449219 -22.652344 20.878906 -24.054688 20.878906 -26.996094 L 16.347656 -26.996094 C 16.347656 -22.886719 13.3125 -22.886719 11.445312 -22.886719 C 5.136719 -22.886719 0 -17.796875 0 -11.445312 C 0 -8.78125 0.933594 -6.257812 2.523438 -4.34375 C -1.636719 2.476562 1.542969 8.828125 10.277344 5.699219 C 14.386719 4.203125 19.523438 1.496094 23.542969 2.382812 C 28.679688 3.503906 28.820312 9.949219 24.429688 12.097656 C 16.441406 16.113281 7.007812 7.332031 -0.792969 7.660156 C -4.625 7.847656 -8.082031 9.621094 -9.667969 13.3125 L -6.210938 16.394531 C -3.921875 11.210938 0.1875 10.136719 4.71875 10.929688 C 10.042969 11.910156 15.414062 14.667969 20.925781 14.761719 C 25.550781 14.851562 32.230469 12.425781 32.183594 6.914062 C 32.089844 3.128906 28.304688 -0.46875 21.394531 0.515625 Z M 13.21875 -19.382812 C 14.808594 -18.402344 16.300781 -16.910156 17.46875 -14.992188 C 20.226562 -10.324219 19.757812 -4.949219 16.441406 -2.988281 C 13.5 -1.261719 9.25 -2.847656 6.445312 -6.492188 C 6.867188 -7.191406 7.332031 -7.847656 7.800781 -8.5 C 10.507812 -11.910156 13.125 -15.179688 13.359375 -17.75 C 13.40625 -18.355469 13.359375 -18.917969 13.21875 -19.382812 Z M 6.492188 -19.945312 C 7.519531 -20.550781 8.78125 -20.738281 10.042969 -20.550781 C 11.675781 -20.132812 11.816406 -18.261719 11.398438 -16.957031 C 10.695312 -14.898438 8.59375 -12.238281 6.398438 -9.480469 C 6.070312 -9.0625 5.699219 -8.640625 5.324219 -8.175781 C 2.753906 -12.796875 3.222656 -18.03125 6.492188 -19.945312 Z M 6.492188 -19.945312 "/></g></g></g><g fill="#000000" fill-opacity="1"><g transform="translate(219.344681, 194.102455)"><g><path d="M 0 -22.886719 C 0.652344 -21.160156 0.839844 -19.570312 0.839844 -17.1875 L 0.839844 -5.699219 C 0.839844 -3.363281 0.652344 -1.773438 0 0 C 2.054688 0 4.109375 0 6.164062 0 C 5.464844 -1.773438 5.324219 -3.363281 5.324219 -5.699219 L 5.324219 -16.863281 C 5.324219 -16.957031 5.324219 -17.09375 5.324219 -17.234375 C 6.820312 -18.078125 9.015625 -19.199219 10.976562 -19.851562 C 14.433594 -20.972656 17.1875 -20.597656 17.1875 -16.113281 L 17.1875 -5.699219 C 17.1875 -3.363281 17.003906 -1.773438 16.347656 0 C 18.402344 0 20.457031 0 22.515625 0 C 21.859375 -1.773438 21.671875 -3.363281 21.671875 -5.699219 C 21.671875 -9.0625 21.671875 -13.5 21.671875 -17.046875 C 21.671875 -20.925781 19.570312 -22.886719 15.742188 -22.886719 C 12.050781 -22.886719 8.222656 -20.785156 5.277344 -18.964844 C 5.230469 -20.320312 4.996094 -21.578125 4.484375 -22.886719 Z M 0 -22.886719 "/></g></g></g><g clip-path="url(#b0f23b5f1f)"><g clip-path="url(#dc0d9f8c2a)"><g clip-path="url(#fd3adf3539)"><path fill="#ff914d" d="M 199.410156 155.253906 C 199.796875 156.589844 199.898438 158.167969 199.570312 159.785156 C 199.402344 160.589844 199.148438 161.40625 198.71875 162.203125 C 198.503906 162.597656 198.242188 162.988281 197.917969 163.347656 C 197.839844 163.4375 197.753906 163.523438 197.667969 163.605469 L 197.390625 163.847656 C 197.300781 163.933594 197.203125 164.003906 197.097656 164.074219 C 196.996094 164.140625 196.898438 164.222656 196.792969 164.28125 C 196.371094 164.542969 195.910156 164.730469 195.4375 164.878906 C 194.964844 165.015625 194.476562 165.09375 193.988281 165.132812 C 193.5 165.15625 193.007812 165.144531 192.519531 165.085938 C 192.039062 165.019531 191.554688 164.925781 191.082031 164.785156 C 190.964844 164.753906 190.847656 164.710938 190.730469 164.667969 C 190.617188 164.628906 190.496094 164.589844 190.386719 164.542969 L 190.039062 164.402344 L 189.710938 164.253906 C 189.273438 164.046875 188.851562 163.816406 188.445312 163.570312 C 187.632812 163.074219 186.878906 162.519531 186.15625 161.964844 C 185.4375 161.40625 184.746094 160.855469 184.050781 160.34375 C 183.363281 159.839844 182.65625 159.382812 181.933594 159.007812 C 181.574219 158.824219 181.207031 158.65625 180.839844 158.519531 C 180.65625 158.445312 180.46875 158.394531 180.28125 158.335938 C 180.097656 158.285156 179.910156 158.230469 179.726562 158.199219 C 179.539062 158.15625 179.355469 158.136719 179.167969 158.105469 C 178.984375 158.09375 178.796875 158.070312 178.613281 158.074219 C 178.425781 158.066406 178.242188 158.085938 178.058594 158.09375 C 177.878906 158.117188 177.699219 158.148438 177.515625 158.171875 C 176.789062 158.3125 176.097656 158.609375 175.457031 159.007812 C 174.8125 159.402344 174.21875 159.890625 173.667969 160.410156 C 172.570312 161.457031 171.636719 162.625 170.761719 163.695312 C 171.054688 163.066406 171.371094 162.414062 171.734375 161.757812 C 172.101562 161.105469 172.507812 160.441406 172.996094 159.792969 C 173.484375 159.148438 174.050781 158.519531 174.730469 157.960938 C 175.410156 157.40625 176.21875 156.929688 177.128906 156.648438 C 177.359375 156.589844 177.59375 156.527344 177.828125 156.472656 C 178.066406 156.433594 178.304688 156.390625 178.546875 156.378906 C 178.789062 156.351562 179.03125 156.359375 179.277344 156.355469 C 179.519531 156.371094 179.765625 156.378906 180.007812 156.414062 C 180.25 156.441406 180.484375 156.492188 180.722656 156.535156 C 180.957031 156.59375 181.195312 156.644531 181.421875 156.722656 C 181.886719 156.855469 182.332031 157.035156 182.769531 157.230469 C 183.640625 157.625 184.457031 158.117188 185.226562 158.652344 C 185.988281 159.183594 186.707031 159.75 187.414062 160.289062 C 188.117188 160.832031 188.808594 161.355469 189.515625 161.808594 C 189.867188 162.035156 190.226562 162.242188 190.585938 162.429688 L 190.859375 162.566406 L 191.128906 162.6875 C 191.214844 162.730469 191.308594 162.765625 191.398438 162.800781 C 191.492188 162.835938 191.582031 162.878906 191.675781 162.90625 C 192.042969 163.039062 192.425781 163.132812 192.804688 163.210938 C 193.183594 163.28125 193.5625 163.316406 193.9375 163.332031 C 194.3125 163.332031 194.683594 163.304688 195.039062 163.234375 C 195.390625 163.160156 195.734375 163.058594 196.050781 162.902344 C 196.132812 162.871094 196.203125 162.820312 196.28125 162.78125 C 196.359375 162.738281 196.4375 162.699219 196.503906 162.644531 L 196.722656 162.496094 C 196.789062 162.441406 196.859375 162.390625 196.925781 162.328125 C 197.191406 162.097656 197.4375 161.824219 197.652344 161.523438 C 198.085938 160.925781 198.425781 160.226562 198.699219 159.527344 C 199.238281 158.125 199.453125 156.648438 199.410156 155.253906 Z M 198.175781 155.277344 C 197.960938 155.832031 197.726562 156.417969 197.4375 157 C 197.152344 157.578125 196.816406 158.15625 196.40625 158.664062 C 195.996094 159.167969 195.507812 159.59375 194.957031 159.839844 C 194.410156 160.09375 193.792969 160.175781 193.148438 160.113281 C 192.515625 160.0625 191.921875 159.855469 191.335938 159.519531 C 190.75 159.191406 190.1875 158.753906 189.613281 158.328125 C 189.035156 157.902344 188.441406 157.480469 187.8125 157.183594 C 187.1875 156.882812 186.527344 156.722656 185.9375 156.742188 C 186.484375 156.972656 186.992188 157.3125 187.464844 157.734375 C 187.941406 158.15625 188.390625 158.65625 188.886719 159.175781 C 189.382812 159.695312 189.925781 160.246094 190.609375 160.714844 C 190.949219 160.949219 191.328125 161.15625 191.738281 161.3125 C 192.144531 161.46875 192.589844 161.570312 193.019531 161.605469 C 193.453125 161.644531 193.898438 161.632812 194.339844 161.550781 C 194.777344 161.464844 195.210938 161.308594 195.597656 161.089844 C 195.984375 160.871094 196.328125 160.59375 196.613281 160.285156 C 196.902344 159.972656 197.136719 159.636719 197.328125 159.289062 C 197.714844 158.597656 197.929688 157.882812 198.054688 157.207031 C 198.179688 156.523438 198.203125 155.875 198.175781 155.277344 Z M 184.433594 162.914062 C 183.726562 162.339844 182.972656 161.785156 182.144531 161.34375 C 181.316406 160.902344 180.414062 160.582031 179.488281 160.496094 C 178.566406 160.414062 177.667969 160.574219 176.914062 160.9375 C 176.539062 161.117188 176.203125 161.347656 175.925781 161.617188 C 175.644531 161.886719 175.425781 162.1875 175.273438 162.5 C 176.28125 161.53125 177.859375 161.246094 179.316406 161.605469 C 180.046875 161.789062 180.769531 162.132812 181.460938 162.566406 C 182.152344 163 182.828125 163.527344 183.503906 164.082031 C 184.183594 164.636719 184.878906 165.214844 185.625 165.738281 C 186.367188 166.261719 187.167969 166.726562 188.019531 167.027344 C 188.871094 167.328125 189.75 167.457031 190.570312 167.378906 C 191.386719 167.308594 192.136719 167.019531 192.683594 166.597656 C 192.019531 166.796875 191.300781 166.839844 190.582031 166.726562 C 189.863281 166.613281 189.136719 166.359375 188.453125 165.996094 C 187.769531 165.632812 187.105469 165.148438 186.449219 164.613281 C 185.796875 164.074219 185.136719 163.488281 184.433594 162.914062 Z M 184.433594 162.914062 " fill-opacity="1" fill-rule="nonzero"/></g></g></g><g fill="#000000" fill-opacity="1"><g transform="translate(224.504674, 216.921856)"><g><path d="M 7.84375 0 L 11.214844 0 L 14.777344 -9.871094 L 18.371094 0 L 21.742188 0 L 27.859375 -16.917969 C 28.296875 -18.152344 28.980469 -19.550781 29.558594 -20.5625 L 25.9375 -20.5625 C 26.625 -19.46875 27.171875 -18.179688 26.734375 -16.972656 L 21.167969 -1.589844 L 15.574219 -16.972656 C 15.164062 -18.179688 14.695312 -19.605469 14.667969 -20.5625 L 10.527344 -20.5625 C 11.105469 -19.550781 11.789062 -18.152344 12.230469 -16.917969 L 14.203125 -11.460938 L 10.636719 -1.589844 L 5.074219 -16.972656 C 4.632812 -18.179688 4.167969 -19.605469 4.140625 -20.5625 L 0 -20.5625 C 0.601562 -19.550781 1.261719 -18.152344 1.699219 -16.917969 Z M 7.84375 0 "/></g></g></g><g fill="#000000" fill-opacity="1"><g transform="translate(256.411676, 216.921856)"><g><path d="M 12.230469 -3.34375 C 12.230469 -4.796875 12.230469 -7.898438 12.230469 -9.734375 C 12.230469 -13.050781 9.679688 -13.433594 6.992188 -13.433594 C 4.550781 -13.433594 1.808594 -13.050781 0 -12.640625 L 1.890625 -10.007812 C 3.453125 -11.296875 5.484375 -12.449219 7.566406 -12.476562 C 10.5 -12.53125 10.117188 -8.882812 7.402344 -8.199219 C 6.386719 -7.953125 5.292969 -8.171875 4.222656 -8.199219 C 1.726562 -8.253906 0 -6.664062 0 -4.113281 C 0 -1.425781 1.917969 0 4.085938 0 C 6.359375 0 8.855469 -1.589844 9.597656 -4.824219 L 9.597656 -3.621094 C 9.597656 -2.277344 9.625 -1.179688 10.089844 0 L 12.722656 0 C 12.339844 -1.042969 12.230469 -1.972656 12.230469 -3.34375 Z M 5.101562 -1.453125 C 2.054688 -1.371094 1.453125 -6.445312 5.539062 -7.019531 C 6.964844 -7.210938 8.882812 -7.265625 9.597656 -8.664062 C 9.351562 -6.195312 8.335938 -1.535156 5.101562 -1.453125 Z M 5.101562 -1.453125 "/></g></g></g><g fill="#000000" fill-opacity="1"><g transform="translate(271.433186, 216.921856)"><g><path d="M 3.621094 0 C 3.207031 -1.042969 3.125 -1.972656 3.125 -3.34375 L 3.125 -17.21875 C 3.125 -18.589844 3.207031 -19.523438 3.621094 -20.5625 C 2.414062 -20.5625 1.207031 -20.5625 0 -20.5625 C 0.382812 -19.523438 0.492188 -18.589844 0.492188 -17.21875 L 0.492188 -3.566406 C 0.492188 -2.25 0.519531 -1.179688 0.988281 0 Z M 3.621094 0 "/></g></g></g><g fill="#000000" fill-opacity="1"><g transform="translate(277.354076, 216.921856)"><g><path d="M 5.703125 -2.222656 C 4.632812 -2.90625 5.566406 -3.894531 7.320312 -4.332031 C 8.226562 -4.578125 9.269531 -4.714844 10.171875 -5.019531 C 13.105469 -6.003906 13.488281 -9.183594 11.625 -11.324219 C 10.472656 -12.640625 8.636719 -13.433594 6.71875 -13.433594 C 3.015625 -13.433594 0 -10.417969 0 -6.71875 C 0 -3.015625 3.015625 0 6.71875 0 C 9.351562 0 11.652344 -1.507812 12.75 -3.730469 L 12.230469 -4.441406 C 11.1875 -2.027344 8.035156 -0.742188 5.703125 -2.222656 Z M 4.222656 -3.316406 C 3.839844 -3.703125 3.507812 -4.140625 3.207031 -4.660156 C 1.589844 -7.402344 1.835938 -10.554688 3.785156 -11.679688 C 4.496094 -12.09375 5.292969 -12.175781 6.058594 -12.0625 C 7.757812 -11.761719 9.515625 -10.417969 10.007812 -8.746094 C 10.335938 -7.621094 10.035156 -6.472656 8.746094 -5.921875 C 7.210938 -5.292969 5.046875 -4.992188 4.222656 -3.316406 Z M 4.222656 -3.316406 "/></g></g></g><g fill="#000000" fill-opacity="1"><g transform="translate(92.316857, 151.178037)"><g><path d="M 0.375 -4.625 L 0.953125 -4.625 L 0.796875 -2.984375 L 0.25 -2.984375 Z M 1.640625 -4.625 L 2.21875 -4.625 L 2.0625 -2.984375 L 1.515625 -2.984375 Z M 1.640625 -4.625 "/></g></g></g><g fill="#000000" fill-opacity="1"><g transform="translate(94.793665, 151.178037)"><g><path d="M 3.828125 -1.4375 L 4.796875 -4.046875 L 5.453125 -4.046875 L 3.875 0 L 3.796875 0 L 2.703125 -2.625 L 1.609375 0 L 1.53125 0 L -0.046875 -4.046875 L 0.609375 -4.046875 L 1.578125 -1.4375 L 2.6875 -4.0625 L 2.71875 -4.0625 Z M 3.828125 -1.4375 "/></g></g></g><g fill="#000000" fill-opacity="1"><g transform="translate(100.204115, 151.178037)"><g><path d="M 1.578125 0.0625 C 1.285156 0.0625 1.035156 0.00390625 0.828125 -0.109375 C 0.628906 -0.234375 0.476562 -0.394531 0.375 -0.59375 C 0.28125 -0.800781 0.234375 -1.023438 0.234375 -1.265625 C 0.234375 -1.523438 0.289062 -1.753906 0.40625 -1.953125 C 0.519531 -2.160156 0.675781 -2.316406 0.875 -2.421875 C 1.070312 -2.535156 1.296875 -2.59375 1.546875 -2.59375 C 1.929688 -2.59375 2.21875 -2.484375 2.40625 -2.265625 C 2.59375 -2.054688 2.6875 -1.753906 2.6875 -1.359375 C 2.6875 -1.265625 2.679688 -1.164062 2.671875 -1.0625 L 0.859375 -1.0625 C 0.898438 -0.832031 0.976562 -0.664062 1.09375 -0.5625 C 1.21875 -0.46875 1.382812 -0.421875 1.59375 -0.421875 C 1.769531 -0.421875 1.914062 -0.4375 2.03125 -0.46875 C 2.144531 -0.5 2.25 -0.539062 2.34375 -0.59375 L 2.53125 -0.171875 C 2.4375 -0.109375 2.3125 -0.0507812 2.15625 0 C 2 0.0390625 1.804688 0.0625 1.578125 0.0625 Z M 2.125 -1.46875 C 2.125 -1.695312 2.070312 -1.859375 1.96875 -1.953125 C 1.863281 -2.046875 1.71875 -2.09375 1.53125 -2.09375 C 1.144531 -2.09375 0.921875 -1.882812 0.859375 -1.46875 Z M 2.125 -1.46875 "/></g></g></g><g fill="#000000" fill-opacity="1"><g transform="translate(103.132256, 151.178037)"><g/></g></g><g fill="#000000" fill-opacity="1"><g transform="translate(104.480744, 151.178037)"><g><path d="M 3.828125 -1.4375 L 4.796875 -4.046875 L 5.453125 -4.046875 L 3.875 0 L 3.796875 0 L 2.703125 -2.625 L 1.609375 0 L 1.53125 0 L -0.046875 -4.046875 L 0.609375 -4.046875 L 1.578125 -1.4375 L 2.6875 -4.0625 L 2.71875 -4.0625 Z M 3.828125 -1.4375 "/></g></g></g><g fill="#000000" fill-opacity="1"><g transform="translate(109.891193, 151.178037)"><g><path d="M 0.4375 -2.53125 L 1.046875 -2.53125 L 1.046875 0 L 0.4375 0 Z M 0.734375 -3 C 0.617188 -3 0.523438 -3.035156 0.453125 -3.109375 C 0.378906 -3.191406 0.34375 -3.289062 0.34375 -3.40625 C 0.34375 -3.5 0.378906 -3.582031 0.453125 -3.65625 C 0.523438 -3.726562 0.617188 -3.765625 0.734375 -3.765625 C 0.847656 -3.765625 0.941406 -3.726562 1.015625 -3.65625 C 1.097656 -3.582031 1.140625 -3.5 1.140625 -3.40625 C 1.140625 -3.289062 1.097656 -3.191406 1.015625 -3.109375 C 0.941406 -3.035156 0.847656 -3 0.734375 -3 Z M 0.734375 -3 "/></g></g></g><g fill="#000000" fill-opacity="1"><g transform="translate(111.377278, 151.178037)"><g><path d="M 0.4375 -4.046875 L 1.03125 -4.046875 L 1.03125 0 L 0.4375 0 Z M 0.4375 -4.046875 "/></g></g></g><g fill="#000000" fill-opacity="1"><g transform="translate(112.852356, 151.178037)"><g><path d="M 0.4375 -4.046875 L 1.03125 -4.046875 L 1.03125 0 L 0.4375 0 Z M 0.4375 -4.046875 "/></g></g></g><g fill="#000000" fill-opacity="1"><g transform="translate(114.327433, 151.178037)"><g/></g></g><g fill="#000000" fill-opacity="1"><g transform="translate(115.675921, 151.178037)"><g><path d="M 0.421875 -4.046875 L 1.40625 -4.046875 C 2.21875 -4.046875 2.785156 -3.851562 3.109375 -3.46875 C 3.429688 -3.082031 3.59375 -2.625 3.59375 -2.09375 C 3.59375 -1.71875 3.519531 -1.375 3.375 -1.0625 C 3.238281 -0.75 3.007812 -0.492188 2.6875 -0.296875 C 2.375 -0.0976562 1.957031 0 1.4375 0 L 0.421875 0 Z M 1.5 -0.546875 C 2.007812 -0.546875 2.378906 -0.6875 2.609375 -0.96875 C 2.835938 -1.257812 2.953125 -1.625 2.953125 -2.0625 C 2.953125 -2.488281 2.832031 -2.832031 2.59375 -3.09375 C 2.363281 -3.363281 2 -3.5 1.5 -3.5 L 1.046875 -3.5 L 1.046875 -0.546875 Z M 1.5 -0.546875 "/></g></g></g><g fill="#000000" fill-opacity="1"><g transform="translate(119.462688, 151.178037)"><g><path d="M 1.578125 0.0625 C 1.285156 0.0625 1.035156 0.00390625 0.828125 -0.109375 C 0.628906 -0.234375 0.476562 -0.394531 0.375 -0.59375 C 0.28125 -0.800781 0.234375 -1.023438 0.234375 -1.265625 C 0.234375 -1.523438 0.289062 -1.753906 0.40625 -1.953125 C 0.519531 -2.160156 0.675781 -2.316406 0.875 -2.421875 C 1.070312 -2.535156 1.296875 -2.59375 1.546875 -2.59375 C 1.929688 -2.59375 2.21875 -2.484375 2.40625 -2.265625 C 2.59375 -2.054688 2.6875 -1.753906 2.6875 -1.359375 C 2.6875 -1.265625 2.679688 -1.164062 2.671875 -1.0625 L 0.859375 -1.0625 C 0.898438 -0.832031 0.976562 -0.664062 1.09375 -0.5625 C 1.21875 -0.46875 1.382812 -0.421875 1.59375 -0.421875 C 1.769531 -0.421875 1.914062 -0.4375 2.03125 -0.46875 C 2.144531 -0.5 2.25 -0.539062 2.34375 -0.59375 L 2.53125 -0.171875 C 2.4375 -0.109375 2.3125 -0.0507812 2.15625 0 C 2 0.0390625 1.804688 0.0625 1.578125 0.0625 Z M 2.125 -1.46875 C 2.125 -1.695312 2.070312 -1.859375 1.96875 -1.953125 C 1.863281 -2.046875 1.71875 -2.09375 1.53125 -2.09375 C 1.144531 -2.09375 0.921875 -1.882812 0.859375 -1.46875 Z M 2.125 -1.46875 "/></g></g></g><g fill="#000000" fill-opacity="1"><g transform="translate(122.39083, 151.178037)"><g><path d="M 1.265625 0.0625 C 1.085938 0.0625 0.898438 0.0390625 0.703125 0 C 0.515625 -0.0507812 0.382812 -0.109375 0.3125 -0.171875 L 0.5 -0.640625 C 0.726562 -0.484375 0.984375 -0.40625 1.265625 -0.40625 C 1.546875 -0.40625 1.6875 -0.488281 1.6875 -0.65625 C 1.6875 -0.726562 1.65625 -0.785156 1.59375 -0.828125 C 1.53125 -0.867188 1.425781 -0.914062 1.28125 -0.96875 L 1.078125 -1.046875 C 0.859375 -1.140625 0.679688 -1.242188 0.546875 -1.359375 C 0.421875 -1.484375 0.359375 -1.648438 0.359375 -1.859375 C 0.359375 -2.085938 0.445312 -2.265625 0.625 -2.390625 C 0.8125 -2.523438 1.054688 -2.59375 1.359375 -2.59375 C 1.503906 -2.59375 1.648438 -2.570312 1.796875 -2.53125 C 1.941406 -2.5 2.054688 -2.460938 2.140625 -2.421875 L 1.921875 -1.9375 C 1.867188 -1.988281 1.789062 -2.03125 1.6875 -2.0625 C 1.582031 -2.101562 1.46875 -2.125 1.34375 -2.125 C 1.082031 -2.125 0.953125 -2.039062 0.953125 -1.875 C 0.953125 -1.789062 0.984375 -1.722656 1.046875 -1.671875 C 1.117188 -1.628906 1.234375 -1.582031 1.390625 -1.53125 C 1.410156 -1.53125 1.46875 -1.507812 1.5625 -1.46875 C 1.800781 -1.375 1.976562 -1.269531 2.09375 -1.15625 C 2.207031 -1.039062 2.265625 -0.890625 2.265625 -0.703125 C 2.265625 -0.453125 2.164062 -0.257812 1.96875 -0.125 C 1.78125 0 1.546875 0.0625 1.265625 0.0625 Z M 1.265625 0.0625 "/></g></g></g><g fill="#000000" fill-opacity="1"><g transform="translate(124.878645, 151.178037)"><g><path d="M 0.4375 -2.53125 L 1.046875 -2.53125 L 1.046875 0 L 0.4375 0 Z M 0.734375 -3 C 0.617188 -3 0.523438 -3.035156 0.453125 -3.109375 C 0.378906 -3.191406 0.34375 -3.289062 0.34375 -3.40625 C 0.34375 -3.5 0.378906 -3.582031 0.453125 -3.65625 C 0.523438 -3.726562 0.617188 -3.765625 0.734375 -3.765625 C 0.847656 -3.765625 0.941406 -3.726562 1.015625 -3.65625 C 1.097656 -3.582031 1.140625 -3.5 1.140625 -3.40625 C 1.140625 -3.289062 1.097656 -3.191406 1.015625 -3.109375 C 0.941406 -3.035156 0.847656 -3 0.734375 -3 Z M 0.734375 -3 "/></g></g></g><g fill="#000000" fill-opacity="1"><g transform="translate(126.364729, 151.178037)"><g><path d="M 1.609375 1.3125 C 1.429688 1.3125 1.25 1.285156 1.0625 1.234375 C 0.882812 1.191406 0.753906 1.144531 0.671875 1.09375 L 0.8125 0.546875 C 1.050781 0.703125 1.3125 0.78125 1.59375 0.78125 C 1.820312 0.78125 2.007812 0.726562 2.15625 0.625 C 2.300781 0.519531 2.378906 0.3125 2.390625 0 L 2.390625 -0.453125 C 2.304688 -0.304688 2.175781 -0.179688 2 -0.078125 C 1.832031 0.015625 1.644531 0.0625 1.4375 0.0625 C 1.21875 0.0625 1.015625 0.0078125 0.828125 -0.09375 C 0.648438 -0.207031 0.503906 -0.363281 0.390625 -0.5625 C 0.285156 -0.769531 0.234375 -1.007812 0.234375 -1.28125 C 0.234375 -1.53125 0.285156 -1.753906 0.390625 -1.953125 C 0.492188 -2.160156 0.640625 -2.316406 0.828125 -2.421875 C 1.015625 -2.535156 1.234375 -2.59375 1.484375 -2.59375 C 1.628906 -2.59375 1.765625 -2.566406 1.890625 -2.515625 C 2.015625 -2.460938 2.125 -2.398438 2.21875 -2.328125 C 2.3125 -2.253906 2.367188 -2.175781 2.390625 -2.09375 L 2.40625 -2.53125 L 2.96875 -2.53125 L 2.96875 -0.015625 C 2.96875 0.410156 2.859375 0.738281 2.640625 0.96875 C 2.421875 1.195312 2.078125 1.3125 1.609375 1.3125 Z M 1.609375 -0.453125 C 1.816406 -0.453125 1.988281 -0.519531 2.125 -0.65625 C 2.269531 -0.800781 2.34375 -0.992188 2.34375 -1.234375 L 2.34375 -1.265625 C 2.34375 -1.421875 2.3125 -1.5625 2.25 -1.6875 C 2.1875 -1.8125 2.097656 -1.910156 1.984375 -1.984375 C 1.867188 -2.054688 1.742188 -2.09375 1.609375 -2.09375 C 1.367188 -2.09375 1.1875 -2.015625 1.0625 -1.859375 C 0.9375 -1.710938 0.875 -1.515625 0.875 -1.265625 C 0.875 -1.023438 0.9375 -0.828125 1.0625 -0.671875 C 1.1875 -0.523438 1.367188 -0.453125 1.609375 -0.453125 Z M 1.609375 -0.453125 "/></g></g></g><g fill="#000000" fill-opacity="1"><g transform="translate(129.70567, 151.178037)"><g><path d="M 0.390625 -2.53125 L 0.96875 -2.53125 L 0.984375 -2.0625 C 1.046875 -2.21875 1.148438 -2.34375 1.296875 -2.4375 C 1.453125 -2.539062 1.632812 -2.59375 1.84375 -2.59375 C 2.101562 -2.59375 2.300781 -2.535156 2.4375 -2.421875 C 2.570312 -2.316406 2.660156 -2.164062 2.703125 -1.96875 C 2.753906 -1.78125 2.78125 -1.53125 2.78125 -1.21875 L 2.78125 0 L 2.1875 0 L 2.1875 -1.203125 C 2.1875 -1.515625 2.15625 -1.738281 2.09375 -1.875 C 2.03125 -2.019531 1.90625 -2.09375 1.71875 -2.09375 C 1.601562 -2.09375 1.488281 -2.054688 1.375 -1.984375 C 1.257812 -1.921875 1.164062 -1.828125 1.09375 -1.703125 C 1.019531 -1.578125 0.984375 -1.425781 0.984375 -1.25 L 0.984375 0 L 0.390625 0 Z M 0.390625 -2.53125 "/></g></g></g><g fill="#000000" fill-opacity="1"><g transform="translate(132.870479, 151.178037)"><g/></g></g><g fill="#000000" fill-opacity="1"><g transform="translate(134.218966, 151.178037)"><g><path d="M 1.3125 -1.890625 L -0.09375 -4.046875 L 0.65625 -4.046875 L 1.625 -2.453125 L 2.59375 -4.046875 L 3.328125 -4.046875 L 1.9375 -1.875 L 1.9375 0 L 1.3125 0 Z M 1.3125 -1.890625 "/></g></g></g><g fill="#000000" fill-opacity="1"><g transform="translate(137.460837, 151.178037)"><g><path d="M 1.5625 0.0625 C 1.300781 0.0625 1.070312 0.00390625 0.875 -0.109375 C 0.675781 -0.234375 0.519531 -0.394531 0.40625 -0.59375 C 0.289062 -0.800781 0.234375 -1.023438 0.234375 -1.265625 C 0.234375 -1.515625 0.285156 -1.738281 0.390625 -1.9375 C 0.503906 -2.132812 0.660156 -2.289062 0.859375 -2.40625 C 1.066406 -2.53125 1.300781 -2.59375 1.5625 -2.59375 C 1.832031 -2.59375 2.066406 -2.53125 2.265625 -2.40625 C 2.460938 -2.289062 2.613281 -2.132812 2.71875 -1.9375 C 2.832031 -1.738281 2.890625 -1.515625 2.890625 -1.265625 C 2.890625 -1.023438 2.832031 -0.800781 2.71875 -0.59375 C 2.613281 -0.394531 2.457031 -0.234375 2.25 -0.109375 C 2.050781 0.00390625 1.820312 0.0625 1.5625 0.0625 Z M 1.578125 -0.421875 C 1.796875 -0.421875 1.960938 -0.5 2.078125 -0.65625 C 2.203125 -0.820312 2.265625 -1.023438 2.265625 -1.265625 C 2.265625 -1.492188 2.195312 -1.691406 2.0625 -1.859375 C 1.9375 -2.023438 1.765625 -2.109375 1.546875 -2.109375 C 1.335938 -2.109375 1.171875 -2.023438 1.046875 -1.859375 C 0.921875 -1.703125 0.859375 -1.503906 0.859375 -1.265625 C 0.859375 -1.023438 0.925781 -0.820312 1.0625 -0.65625 C 1.195312 -0.5 1.367188 -0.421875 1.578125 -0.421875 Z M 1.578125 -0.421875 "/></g></g></g><g fill="#000000" fill-opacity="1"><g transform="translate(140.592625, 151.178037)"><g><path d="M 1.265625 0.0625 C 0.921875 0.0625 0.679688 -0.0390625 0.546875 -0.25 C 0.421875 -0.457031 0.359375 -0.742188 0.359375 -1.109375 L 0.359375 -2.53125 L 0.953125 -2.53125 L 0.953125 -1.265625 C 0.953125 -1.054688 0.960938 -0.890625 0.984375 -0.765625 C 1.003906 -0.648438 1.050781 -0.566406 1.125 -0.515625 C 1.195312 -0.460938 1.304688 -0.4375 1.453125 -0.4375 C 1.546875 -0.4375 1.640625 -0.460938 1.734375 -0.515625 C 1.835938 -0.578125 1.914062 -0.65625 1.96875 -0.75 C 2.03125 -0.851562 2.0625 -0.96875 2.0625 -1.09375 L 2.0625 -2.53125 L 2.65625 -2.53125 L 2.65625 0 L 2.171875 0 L 2.109375 -0.375 C 2.015625 -0.226562 1.898438 -0.117188 1.765625 -0.046875 C 1.628906 0.0234375 1.460938 0.0625 1.265625 0.0625 Z M 1.265625 0.0625 "/></g></g></g><g fill="#000000" fill-opacity="1"><g transform="translate(143.652857, 151.178037)"><g><path d="M 0.375 -2.53125 L 0.96875 -2.53125 L 0.96875 -2.03125 C 1.03125 -2.195312 1.125 -2.332031 1.25 -2.4375 C 1.382812 -2.539062 1.535156 -2.59375 1.703125 -2.59375 C 1.816406 -2.59375 1.898438 -2.582031 1.953125 -2.5625 L 1.859375 -1.953125 C 1.828125 -1.972656 1.757812 -1.984375 1.65625 -1.984375 C 1.476562 -1.984375 1.316406 -1.925781 1.171875 -1.8125 C 1.035156 -1.707031 0.96875 -1.535156 0.96875 -1.296875 L 0.96875 0 L 0.375 0 Z M 0.375 -2.53125 "/></g></g></g><g fill="#000000" fill-opacity="1"><g transform="translate(145.628803, 151.178037)"><g/></g></g><g fill="#000000" fill-opacity="1"><g transform="translate(146.97729, 151.178037)"><g><path d="M 0.5 -4.046875 L 1.109375 -4.046875 L 1.109375 0 L 0.5 0 Z M 0.5 -4.046875 "/></g></g></g><g fill="#000000" fill-opacity="1"><g transform="translate(148.595473, 151.178037)"><g><path d="M 0.390625 -2.53125 L 0.984375 -2.53125 L 0.984375 -2.0625 C 1.066406 -2.238281 1.1875 -2.367188 1.34375 -2.453125 C 1.5 -2.546875 1.675781 -2.59375 1.875 -2.59375 C 2.320312 -2.582031 2.597656 -2.425781 2.703125 -2.125 C 2.785156 -2.269531 2.90625 -2.382812 3.0625 -2.46875 C 3.226562 -2.550781 3.398438 -2.59375 3.578125 -2.59375 C 3.835938 -2.59375 4.035156 -2.539062 4.171875 -2.4375 C 4.316406 -2.332031 4.410156 -2.1875 4.453125 -2 C 4.492188 -1.820312 4.515625 -1.578125 4.515625 -1.265625 L 4.515625 0 L 3.921875 0 L 3.921875 -1.265625 C 3.921875 -1.566406 3.890625 -1.78125 3.828125 -1.90625 C 3.765625 -2.03125 3.648438 -2.09375 3.484375 -2.09375 C 3.253906 -2.09375 3.078125 -2.015625 2.953125 -1.859375 C 2.835938 -1.710938 2.78125 -1.507812 2.78125 -1.25 L 2.78125 0 L 2.1875 0 L 2.1875 -1.359375 C 2.1875 -1.554688 2.175781 -1.703125 2.15625 -1.796875 C 2.144531 -1.890625 2.101562 -1.960938 2.03125 -2.015625 C 1.96875 -2.066406 1.863281 -2.09375 1.71875 -2.09375 C 1.59375 -2.09375 1.472656 -2.054688 1.359375 -1.984375 C 1.242188 -1.910156 1.148438 -1.804688 1.078125 -1.671875 C 1.015625 -1.546875 0.984375 -1.40625 0.984375 -1.25 L 0.984375 0 L 0.390625 0 Z M 0.390625 -2.53125 "/></g></g></g><g fill="#000000" fill-opacity="1"><g transform="translate(153.488547, 151.178037)"><g><path d="M 1.5 0.0625 C 1.28125 0.0625 1.070312 0.0078125 0.875 -0.09375 C 0.6875 -0.207031 0.53125 -0.363281 0.40625 -0.5625 C 0.289062 -0.769531 0.234375 -1.003906 0.234375 -1.265625 C 0.234375 -1.535156 0.285156 -1.769531 0.390625 -1.96875 C 0.492188 -2.164062 0.640625 -2.316406 0.828125 -2.421875 C 1.015625 -2.535156 1.234375 -2.59375 1.484375 -2.59375 C 1.628906 -2.59375 1.765625 -2.566406 1.890625 -2.515625 C 2.023438 -2.460938 2.132812 -2.398438 2.21875 -2.328125 C 2.3125 -2.253906 2.367188 -2.175781 2.390625 -2.09375 L 2.40625 -2.53125 L 2.96875 -2.53125 L 2.96875 0 L 2.421875 0 L 2.40625 -0.453125 C 2.34375 -0.316406 2.226562 -0.195312 2.0625 -0.09375 C 1.894531 0.0078125 1.707031 0.0625 1.5 0.0625 Z M 1.609375 -0.4375 C 1.816406 -0.4375 1.988281 -0.507812 2.125 -0.65625 C 2.269531 -0.800781 2.34375 -0.988281 2.34375 -1.21875 L 2.34375 -1.265625 C 2.34375 -1.421875 2.3125 -1.5625 2.25 -1.6875 C 2.1875 -1.8125 2.097656 -1.90625 1.984375 -1.96875 C 1.867188 -2.039062 1.742188 -2.078125 1.609375 -2.078125 C 1.367188 -2.078125 1.1875 -2 1.0625 -1.84375 C 0.9375 -1.695312 0.875 -1.503906 0.875 -1.265625 C 0.875 -1.015625 0.9375 -0.8125 1.0625 -0.65625 C 1.1875 -0.507812 1.367188 -0.4375 1.609375 -0.4375 Z M 1.609375 -0.4375 "/></g></g></g><g fill="#000000" fill-opacity="1"><g transform="translate(156.873522, 151.178037)"><g><path d="M 1.609375 1.3125 C 1.429688 1.3125 1.25 1.285156 1.0625 1.234375 C 0.882812 1.191406 0.753906 1.144531 0.671875 1.09375 L 0.8125 0.546875 C 1.050781 0.703125 1.3125 0.78125 1.59375 0.78125 C 1.820312 0.78125 2.007812 0.726562 2.15625 0.625 C 2.300781 0.519531 2.378906 0.3125 2.390625 0 L 2.390625 -0.453125 C 2.304688 -0.304688 2.175781 -0.179688 2 -0.078125 C 1.832031 0.015625 1.644531 0.0625 1.4375 0.0625 C 1.21875 0.0625 1.015625 0.0078125 0.828125 -0.09375 C 0.648438 -0.207031 0.503906 -0.363281 0.390625 -0.5625 C 0.285156 -0.769531 0.234375 -1.007812 0.234375 -1.28125 C 0.234375 -1.53125 0.285156 -1.753906 0.390625 -1.953125 C 0.492188 -2.160156 0.640625 -2.316406 0.828125 -2.421875 C 1.015625 -2.535156 1.234375 -2.59375 1.484375 -2.59375 C 1.628906 -2.59375 1.765625 -2.566406 1.890625 -2.515625 C 2.015625 -2.460938 2.125 -2.398438 2.21875 -2.328125 C 2.3125 -2.253906 2.367188 -2.175781 2.390625 -2.09375 L 2.40625 -2.53125 L 2.96875 -2.53125 L 2.96875 -0.015625 C 2.96875 0.410156 2.859375 0.738281 2.640625 0.96875 C 2.421875 1.195312 2.078125 1.3125 1.609375 1.3125 Z M 1.609375 -0.453125 C 1.816406 -0.453125 1.988281 -0.519531 2.125 -0.65625 C 2.269531 -0.800781 2.34375 -0.992188 2.34375 -1.234375 L 2.34375 -1.265625 C 2.34375 -1.421875 2.3125 -1.5625 2.25 -1.6875 C 2.1875 -1.8125 2.097656 -1.910156 1.984375 -1.984375 C 1.867188 -2.054688 1.742188 -2.09375 1.609375 -2.09375 C 1.367188 -2.09375 1.1875 -2.015625 1.0625 -1.859375 C 0.9375 -1.710938 0.875 -1.515625 0.875 -1.265625 C 0.875 -1.023438 0.9375 -0.828125 1.0625 -0.671875 C 1.1875 -0.523438 1.367188 -0.453125 1.609375 -0.453125 Z M 1.609375 -0.453125 "/></g></g></g><g fill="#000000" fill-opacity="1"><g transform="translate(160.214463, 151.178037)"><g><path d="M 0.4375 -2.53125 L 1.046875 -2.53125 L 1.046875 0 L 0.4375 0 Z M 0.734375 -3 C 0.617188 -3 0.523438 -3.035156 0.453125 -3.109375 C 0.378906 -3.191406 0.34375 -3.289062 0.34375 -3.40625 C 0.34375 -3.5 0.378906 -3.582031 0.453125 -3.65625 C 0.523438 -3.726562 0.617188 -3.765625 0.734375 -3.765625 C 0.847656 -3.765625 0.941406 -3.726562 1.015625 -3.65625 C 1.097656 -3.582031 1.140625 -3.5 1.140625 -3.40625 C 1.140625 -3.289062 1.097656 -3.191406 1.015625 -3.109375 C 0.941406 -3.035156 0.847656 -3 0.734375 -3 Z M 0.734375 -3 "/></g></g></g><g fill="#000000" fill-opacity="1"><g transform="translate(161.700547, 151.178037)"><g><path d="M 0.390625 -2.53125 L 0.96875 -2.53125 L 0.984375 -2.0625 C 1.046875 -2.21875 1.148438 -2.34375 1.296875 -2.4375 C 1.453125 -2.539062 1.632812 -2.59375 1.84375 -2.59375 C 2.101562 -2.59375 2.300781 -2.535156 2.4375 -2.421875 C 2.570312 -2.316406 2.660156 -2.164062 2.703125 -1.96875 C 2.753906 -1.78125 2.78125 -1.53125 2.78125 -1.21875 L 2.78125 0 L 2.1875 0 L 2.1875 -1.203125 C 2.1875 -1.515625 2.15625 -1.738281 2.09375 -1.875 C 2.03125 -2.019531 1.90625 -2.09375 1.71875 -2.09375 C 1.601562 -2.09375 1.488281 -2.054688 1.375 -1.984375 C 1.257812 -1.921875 1.164062 -1.828125 1.09375 -1.703125 C 1.019531 -1.578125 0.984375 -1.425781 0.984375 -1.25 L 0.984375 0 L 0.390625 0 Z M 0.390625 -2.53125 "/></g></g></g><g fill="#000000" fill-opacity="1"><g transform="translate(164.865356, 151.178037)"><g><path d="M 1.5 0.0625 C 1.28125 0.0625 1.070312 0.0078125 0.875 -0.09375 C 0.6875 -0.207031 0.53125 -0.363281 0.40625 -0.5625 C 0.289062 -0.769531 0.234375 -1.003906 0.234375 -1.265625 C 0.234375 -1.535156 0.285156 -1.769531 0.390625 -1.96875 C 0.492188 -2.164062 0.640625 -2.316406 0.828125 -2.421875 C 1.015625 -2.535156 1.234375 -2.59375 1.484375 -2.59375 C 1.628906 -2.59375 1.765625 -2.566406 1.890625 -2.515625 C 2.023438 -2.460938 2.132812 -2.398438 2.21875 -2.328125 C 2.3125 -2.253906 2.367188 -2.175781 2.390625 -2.09375 L 2.40625 -2.53125 L 2.96875 -2.53125 L 2.96875 0 L 2.421875 0 L 2.40625 -0.453125 C 2.34375 -0.316406 2.226562 -0.195312 2.0625 -0.09375 C 1.894531 0.0078125 1.707031 0.0625 1.5 0.0625 Z M 1.609375 -0.4375 C 1.816406 -0.4375 1.988281 -0.507812 2.125 -0.65625 C 2.269531 -0.800781 2.34375 -0.988281 2.34375 -1.21875 L 2.34375 -1.265625 C 2.34375 -1.421875 2.3125 -1.5625 2.25 -1.6875 C 2.1875 -1.8125 2.097656 -1.90625 1.984375 -1.96875 C 1.867188 -2.039062 1.742188 -2.078125 1.609375 -2.078125 C 1.367188 -2.078125 1.1875 -2 1.0625 -1.84375 C 0.9375 -1.695312 0.875 -1.503906 0.875 -1.265625 C 0.875 -1.015625 0.9375 -0.8125 1.0625 -0.65625 C 1.1875 -0.507812 1.367188 -0.4375 1.609375 -0.4375 Z M 1.609375 -0.4375 "/></g></g></g><g fill="#000000" fill-opacity="1"><g transform="translate(168.250331, 151.178037)"><g><path d="M 0.609375 -2.046875 L 0.171875 -2.046875 L 0.171875 -2.53125 L 0.609375 -2.53125 L 0.609375 -3.546875 L 1.203125 -3.6875 L 1.203125 -2.53125 L 1.796875 -2.53125 L 1.796875 -2.046875 L 1.203125 -2.046875 L 1.203125 0 L 0.609375 0 Z M 0.609375 -2.046875 "/></g></g></g><g fill="#000000" fill-opacity="1"><g transform="translate(170.138208, 151.178037)"><g><path d="M 0.4375 -2.53125 L 1.046875 -2.53125 L 1.046875 0 L 0.4375 0 Z M 0.734375 -3 C 0.617188 -3 0.523438 -3.035156 0.453125 -3.109375 C 0.378906 -3.191406 0.34375 -3.289062 0.34375 -3.40625 C 0.34375 -3.5 0.378906 -3.582031 0.453125 -3.65625 C 0.523438 -3.726562 0.617188 -3.765625 0.734375 -3.765625 C 0.847656 -3.765625 0.941406 -3.726562 1.015625 -3.65625 C 1.097656 -3.582031 1.140625 -3.5 1.140625 -3.40625 C 1.140625 -3.289062 1.097656 -3.191406 1.015625 -3.109375 C 0.941406 -3.035156 0.847656 -3 0.734375 -3 Z M 0.734375 -3 "/></g></g></g><g fill="#000000" fill-opacity="1"><g transform="translate(171.624293, 151.178037)"><g><path d="M 1.5625 0.0625 C 1.300781 0.0625 1.070312 0.00390625 0.875 -0.109375 C 0.675781 -0.234375 0.519531 -0.394531 0.40625 -0.59375 C 0.289062 -0.800781 0.234375 -1.023438 0.234375 -1.265625 C 0.234375 -1.515625 0.285156 -1.738281 0.390625 -1.9375 C 0.503906 -2.132812 0.660156 -2.289062 0.859375 -2.40625 C 1.066406 -2.53125 1.300781 -2.59375 1.5625 -2.59375 C 1.832031 -2.59375 2.066406 -2.53125 2.265625 -2.40625 C 2.460938 -2.289062 2.613281 -2.132812 2.71875 -1.9375 C 2.832031 -1.738281 2.890625 -1.515625 2.890625 -1.265625 C 2.890625 -1.023438 2.832031 -0.800781 2.71875 -0.59375 C 2.613281 -0.394531 2.457031 -0.234375 2.25 -0.109375 C 2.050781 0.00390625 1.820312 0.0625 1.5625 0.0625 Z M 1.578125 -0.421875 C 1.796875 -0.421875 1.960938 -0.5 2.078125 -0.65625 C 2.203125 -0.820312 2.265625 -1.023438 2.265625 -1.265625 C 2.265625 -1.492188 2.195312 -1.691406 2.0625 -1.859375 C 1.9375 -2.023438 1.765625 -2.109375 1.546875 -2.109375 C 1.335938 -2.109375 1.171875 -2.023438 1.046875 -1.859375 C 0.921875 -1.703125 0.859375 -1.503906 0.859375 -1.265625 C 0.859375 -1.023438 0.925781 -0.820312 1.0625 -0.65625 C 1.195312 -0.5 1.367188 -0.421875 1.578125 -0.421875 Z M 1.578125 -0.421875 "/></g></g></g><g fill="#000000" fill-opacity="1"><g transform="translate(174.75608, 151.178037)"><g><path d="M 0.390625 -2.53125 L 0.96875 -2.53125 L 0.984375 -2.0625 C 1.046875 -2.21875 1.148438 -2.34375 1.296875 -2.4375 C 1.453125 -2.539062 1.632812 -2.59375 1.84375 -2.59375 C 2.101562 -2.59375 2.300781 -2.535156 2.4375 -2.421875 C 2.570312 -2.316406 2.660156 -2.164062 2.703125 -1.96875 C 2.753906 -1.78125 2.78125 -1.53125 2.78125 -1.21875 L 2.78125 0 L 2.1875 0 L 2.1875 -1.203125 C 2.1875 -1.515625 2.15625 -1.738281 2.09375 -1.875 C 2.03125 -2.019531 1.90625 -2.09375 1.71875 -2.09375 C 1.601562 -2.09375 1.488281 -2.054688 1.375 -1.984375 C 1.257812 -1.921875 1.164062 -1.828125 1.09375 -1.703125 C 1.019531 -1.578125 0.984375 -1.425781 0.984375 -1.25 L 0.984375 0 L 0.390625 0 Z M 0.390625 -2.53125 "/></g></g></g><g fill="#000000" fill-opacity="1"><g transform="translate(177.920889, 151.178037)"><g><path d="M 1.359375 0.0625 C 1.140625 0.0625 0.921875 0.0234375 0.703125 -0.046875 C 0.484375 -0.128906 0.328125 -0.21875 0.234375 -0.3125 L 0.53125 -0.84375 C 0.601562 -0.769531 0.722656 -0.695312 0.890625 -0.625 C 1.054688 -0.550781 1.210938 -0.515625 1.359375 -0.515625 C 1.554688 -0.515625 1.710938 -0.554688 1.828125 -0.640625 C 1.953125 -0.734375 2.015625 -0.863281 2.015625 -1.03125 C 2.015625 -1.15625 1.984375 -1.257812 1.921875 -1.34375 C 1.859375 -1.4375 1.773438 -1.515625 1.671875 -1.578125 C 1.578125 -1.640625 1.441406 -1.710938 1.265625 -1.796875 C 1.054688 -1.898438 0.914062 -1.976562 0.84375 -2.03125 C 0.488281 -2.269531 0.3125 -2.601562 0.3125 -3.03125 C 0.3125 -3.375 0.425781 -3.640625 0.65625 -3.828125 C 0.882812 -4.015625 1.175781 -4.109375 1.53125 -4.109375 C 1.90625 -4.109375 2.222656 -4 2.484375 -3.78125 L 2.203125 -3.28125 C 2.128906 -3.351562 2.03125 -3.414062 1.90625 -3.46875 C 1.78125 -3.519531 1.644531 -3.546875 1.5 -3.546875 C 1.3125 -3.546875 1.164062 -3.503906 1.0625 -3.421875 C 0.957031 -3.335938 0.90625 -3.21875 0.90625 -3.0625 C 0.90625 -2.945312 0.9375 -2.84375 1 -2.75 C 1.070312 -2.664062 1.15625 -2.585938 1.25 -2.515625 C 1.351562 -2.453125 1.492188 -2.375 1.671875 -2.28125 C 1.835938 -2.1875 1.960938 -2.113281 2.046875 -2.0625 C 2.140625 -2.007812 2.222656 -1.945312 2.296875 -1.875 C 2.398438 -1.78125 2.484375 -1.664062 2.546875 -1.53125 C 2.617188 -1.394531 2.65625 -1.25 2.65625 -1.09375 C 2.65625 -0.84375 2.597656 -0.628906 2.484375 -0.453125 C 2.378906 -0.285156 2.226562 -0.15625 2.03125 -0.0625 C 1.832031 0.0195312 1.609375 0.0625 1.359375 0.0625 Z M 1.359375 0.0625 "/></g></g></g><g fill="#000000" fill-opacity="1"><g transform="translate(180.810503, 151.178037)"><g><path d="M 0.375 -4.625 L 0.953125 -4.625 L 0.796875 -2.984375 L 0.25 -2.984375 Z M 1.640625 -4.625 L 2.21875 -4.625 L 2.0625 -2.984375 L 1.515625 -2.984375 Z M 1.640625 -4.625 "/></g></g></g><g fill="#000000" fill-opacity="1"><g transform="translate(258.49326, 225.84715)"><g><path d="M 1.59375 -1.5 L 0.25 -1.5 L 0.25 -1.859375 L 1.59375 -1.859375 Z M 1.59375 -1.5 "/></g></g><g transform="translate(260.331209, 225.84715)"><g><path d="M 1.515625 0.046875 C 1.296875 0.046875 1.097656 0.0195312 0.921875 -0.03125 C 0.753906 -0.09375 0.613281 -0.171875 0.5 -0.265625 C 0.382812 -0.367188 0.296875 -0.476562 0.234375 -0.59375 L 0.453125 -0.859375 L 0.515625 -0.859375 C 0.734375 -0.492188 1.066406 -0.3125 1.515625 -0.3125 C 1.773438 -0.3125 1.96875 -0.363281 2.09375 -0.46875 C 2.21875 -0.582031 2.28125 -0.738281 2.28125 -0.9375 C 2.28125 -1.050781 2.257812 -1.144531 2.21875 -1.21875 C 2.175781 -1.300781 2.109375 -1.367188 2.015625 -1.421875 C 1.921875 -1.484375 1.789062 -1.535156 1.625 -1.578125 L 1.21875 -1.671875 C 0.914062 -1.742188 0.691406 -1.859375 0.546875 -2.015625 C 0.398438 -2.171875 0.328125 -2.375 0.328125 -2.625 C 0.328125 -2.789062 0.367188 -2.941406 0.453125 -3.078125 C 0.546875 -3.210938 0.675781 -3.316406 0.84375 -3.390625 C 1.019531 -3.460938 1.226562 -3.5 1.46875 -3.5 C 1.726562 -3.5 1.945312 -3.460938 2.125 -3.390625 C 2.300781 -3.316406 2.441406 -3.207031 2.546875 -3.0625 L 2.359375 -2.796875 L 2.296875 -2.796875 C 2.191406 -2.921875 2.070312 -3.007812 1.9375 -3.0625 C 1.800781 -3.125 1.644531 -3.15625 1.46875 -3.15625 C 1.226562 -3.15625 1.046875 -3.109375 0.921875 -3.015625 C 0.796875 -2.921875 0.734375 -2.789062 0.734375 -2.625 C 0.734375 -2.46875 0.78125 -2.34375 0.875 -2.25 C 0.96875 -2.15625 1.117188 -2.085938 1.328125 -2.046875 L 1.75 -1.9375 C 2.082031 -1.863281 2.320312 -1.742188 2.46875 -1.578125 C 2.625 -1.410156 2.703125 -1.203125 2.703125 -0.953125 C 2.703125 -0.753906 2.65625 -0.578125 2.5625 -0.421875 C 2.476562 -0.273438 2.347656 -0.160156 2.171875 -0.078125 C 1.992188 0.00390625 1.773438 0.046875 1.515625 0.046875 Z M 1.515625 0.046875 "/></g></g><g transform="translate(263.298928, 225.84715)"><g><path d="M 1.078125 0.046875 C 0.816406 0.046875 0.613281 -0.0195312 0.46875 -0.15625 C 0.320312 -0.289062 0.25 -0.476562 0.25 -0.71875 C 0.25 -0.875 0.28125 -1.003906 0.34375 -1.109375 C 0.414062 -1.222656 0.515625 -1.3125 0.640625 -1.375 C 0.773438 -1.445312 0.953125 -1.5 1.171875 -1.53125 C 1.359375 -1.5625 1.5 -1.597656 1.59375 -1.640625 C 1.695312 -1.679688 1.765625 -1.722656 1.796875 -1.765625 C 1.835938 -1.816406 1.859375 -1.878906 1.859375 -1.953125 C 1.859375 -2.078125 1.816406 -2.171875 1.734375 -2.234375 C 1.648438 -2.296875 1.519531 -2.328125 1.34375 -2.328125 C 1.175781 -2.328125 1.03125 -2.289062 0.90625 -2.21875 C 0.789062 -2.15625 0.679688 -2.0625 0.578125 -1.9375 L 0.53125 -1.9375 L 0.34375 -2.203125 C 0.445312 -2.335938 0.582031 -2.445312 0.75 -2.53125 C 0.925781 -2.613281 1.125 -2.65625 1.34375 -2.65625 C 1.644531 -2.65625 1.867188 -2.585938 2.015625 -2.453125 C 2.160156 -2.316406 2.234375 -2.128906 2.234375 -1.890625 L 2.234375 -0.515625 C 2.234375 -0.367188 2.296875 -0.296875 2.421875 -0.296875 C 2.460938 -0.296875 2.503906 -0.300781 2.546875 -0.3125 L 2.578125 -0.3125 L 2.625 -0.046875 C 2.59375 -0.0234375 2.550781 -0.0078125 2.5 0 C 2.457031 0.0078125 2.414062 0.015625 2.375 0.015625 C 2.226562 0.015625 2.117188 -0.015625 2.046875 -0.078125 C 1.972656 -0.140625 1.925781 -0.234375 1.90625 -0.359375 L 1.859375 -0.359375 C 1.773438 -0.222656 1.671875 -0.117188 1.546875 -0.046875 C 1.421875 0.015625 1.265625 0.046875 1.078125 0.046875 Z M 1.15625 -0.25 C 1.300781 -0.25 1.425781 -0.28125 1.53125 -0.34375 C 1.644531 -0.414062 1.726562 -0.515625 1.78125 -0.640625 C 1.84375 -0.765625 1.875 -0.90625 1.875 -1.0625 L 1.875 -1.390625 L 1.828125 -1.40625 C 1.765625 -1.363281 1.691406 -1.328125 1.609375 -1.296875 C 1.523438 -1.273438 1.410156 -1.25 1.265625 -1.21875 C 1.109375 -1.195312 0.984375 -1.164062 0.890625 -1.125 C 0.804688 -1.082031 0.742188 -1.03125 0.703125 -0.96875 C 0.671875 -0.90625 0.65625 -0.820312 0.65625 -0.71875 C 0.65625 -0.570312 0.695312 -0.457031 0.78125 -0.375 C 0.875 -0.289062 1 -0.25 1.15625 -0.25 Z M 1.15625 -0.25 "/></g></g><g transform="translate(266.001376, 225.84715)"><g><path d="M 1.765625 -0.40625 L 1.890625 -0.140625 C 1.828125 -0.078125 1.742188 -0.03125 1.640625 0 C 1.546875 0.03125 1.4375 0.046875 1.3125 0.046875 C 0.820312 0.046875 0.578125 -0.203125 0.578125 -0.703125 L 0.578125 -2.296875 L 0.125 -2.296875 L 0.125 -2.609375 L 0.578125 -2.609375 L 0.578125 -3.15625 L 0.953125 -3.21875 L 0.953125 -2.609375 L 1.796875 -2.609375 L 1.796875 -2.296875 L 0.953125 -2.296875 L 0.953125 -0.75 C 0.953125 -0.445312 1.082031 -0.296875 1.34375 -0.296875 C 1.488281 -0.296875 1.613281 -0.332031 1.71875 -0.40625 Z M 1.765625 -0.40625 "/></g></g><g transform="translate(267.990909, 225.84715)"><g><path d="M 2.203125 -2.609375 L 2.609375 -2.609375 L 1.4375 0.40625 C 1.375 0.570312 1.300781 0.707031 1.21875 0.8125 C 1.132812 0.914062 1.035156 0.988281 0.921875 1.03125 C 0.804688 1.082031 0.671875 1.109375 0.515625 1.109375 C 0.429688 1.109375 0.347656 1.097656 0.265625 1.078125 C 0.191406 1.066406 0.128906 1.046875 0.078125 1.015625 L 0.15625 0.71875 L 0.1875 0.703125 C 0.226562 0.722656 0.273438 0.738281 0.328125 0.75 C 0.390625 0.757812 0.453125 0.765625 0.515625 0.765625 C 0.617188 0.765625 0.703125 0.75 0.765625 0.71875 C 0.835938 0.695312 0.898438 0.648438 0.953125 0.578125 C 1.003906 0.515625 1.050781 0.425781 1.09375 0.3125 L 1.1875 0.0625 L 0.125 -2.609375 L 0.546875 -2.609375 L 1.375 -0.484375 L 1.421875 -0.484375 Z M 2.203125 -2.609375 "/></g></g><g transform="translate(270.745464, 225.84715)"><g><path d="M 1.078125 0.046875 C 0.816406 0.046875 0.613281 -0.0195312 0.46875 -0.15625 C 0.320312 -0.289062 0.25 -0.476562 0.25 -0.71875 C 0.25 -0.875 0.28125 -1.003906 0.34375 -1.109375 C 0.414062 -1.222656 0.515625 -1.3125 0.640625 -1.375 C 0.773438 -1.445312 0.953125 -1.5 1.171875 -1.53125 C 1.359375 -1.5625 1.5 -1.597656 1.59375 -1.640625 C 1.695312 -1.679688 1.765625 -1.722656 1.796875 -1.765625 C 1.835938 -1.816406 1.859375 -1.878906 1.859375 -1.953125 C 1.859375 -2.078125 1.816406 -2.171875 1.734375 -2.234375 C 1.648438 -2.296875 1.519531 -2.328125 1.34375 -2.328125 C 1.175781 -2.328125 1.03125 -2.289062 0.90625 -2.21875 C 0.789062 -2.15625 0.679688 -2.0625 0.578125 -1.9375 L 0.53125 -1.9375 L 0.34375 -2.203125 C 0.445312 -2.335938 0.582031 -2.445312 0.75 -2.53125 C 0.925781 -2.613281 1.125 -2.65625 1.34375 -2.65625 C 1.644531 -2.65625 1.867188 -2.585938 2.015625 -2.453125 C 2.160156 -2.316406 2.234375 -2.128906 2.234375 -1.890625 L 2.234375 -0.515625 C 2.234375 -0.367188 2.296875 -0.296875 2.421875 -0.296875 C 2.460938 -0.296875 2.503906 -0.300781 2.546875 -0.3125 L 2.578125 -0.3125 L 2.625 -0.046875 C 2.59375 -0.0234375 2.550781 -0.0078125 2.5 0 C 2.457031 0.0078125 2.414062 0.015625 2.375 0.015625 C 2.226562 0.015625 2.117188 -0.015625 2.046875 -0.078125 C 1.972656 -0.140625 1.925781 -0.234375 1.90625 -0.359375 L 1.859375 -0.359375 C 1.773438 -0.222656 1.671875 -0.117188 1.546875 -0.046875 C 1.421875 0.015625 1.265625 0.046875 1.078125 0.046875 Z M 1.15625 -0.25 C 1.300781 -0.25 1.425781 -0.28125 1.53125 -0.34375 C 1.644531 -0.414062 1.726562 -0.515625 1.78125 -0.640625 C 1.84375 -0.765625 1.875 -0.90625 1.875 -1.0625 L 1.875 -1.390625 L 1.828125 -1.40625 C 1.765625 -1.363281 1.691406 -1.328125 1.609375 -1.296875 C 1.523438 -1.273438 1.410156 -1.25 1.265625 -1.21875 C 1.109375 -1.195312 0.984375 -1.164062 0.890625 -1.125 C 0.804688 -1.082031 0.742188 -1.03125 0.703125 -0.96875 C 0.671875 -0.90625 0.65625 -0.820312 0.65625 -0.71875 C 0.65625 -0.570312 0.695312 -0.457031 0.78125 -0.375 C 0.875 -0.289062 1 -0.25 1.15625 -0.25 Z M 1.15625 -0.25 "/></g></g><g transform="translate(273.447912, 225.84715)"><g><path d="M 0.453125 0 L 0.453125 -2.609375 L 0.828125 -2.609375 L 0.828125 -2.21875 L 0.875 -2.21875 C 0.957031 -2.363281 1.0625 -2.472656 1.1875 -2.546875 C 1.3125 -2.617188 1.460938 -2.65625 1.640625 -2.65625 C 1.835938 -2.65625 1.992188 -2.613281 2.109375 -2.53125 C 2.222656 -2.457031 2.3125 -2.335938 2.375 -2.171875 L 2.421875 -2.171875 C 2.503906 -2.328125 2.613281 -2.445312 2.75 -2.53125 C 2.882812 -2.613281 3.046875 -2.65625 3.234375 -2.65625 C 3.503906 -2.65625 3.703125 -2.582031 3.828125 -2.4375 C 3.960938 -2.289062 4.03125 -2.070312 4.03125 -1.78125 L 4.03125 0 L 3.640625 0 L 3.640625 -1.765625 C 3.640625 -1.953125 3.597656 -2.09375 3.515625 -2.1875 C 3.441406 -2.28125 3.316406 -2.328125 3.140625 -2.328125 C 2.929688 -2.328125 2.757812 -2.25 2.625 -2.09375 C 2.5 -1.945312 2.4375 -1.695312 2.4375 -1.34375 L 2.4375 0 L 2.046875 0 L 2.046875 -1.765625 C 2.046875 -1.953125 2.003906 -2.09375 1.921875 -2.1875 C 1.847656 -2.28125 1.722656 -2.328125 1.546875 -2.328125 C 1.335938 -2.328125 1.164062 -2.25 1.03125 -2.09375 C 0.90625 -1.945312 0.84375 -1.710938 0.84375 -1.390625 L 0.84375 0 Z M 0.453125 0 "/></g></g><g transform="translate(277.900675, 225.84715)"><g/></g><g transform="translate(279.089658, 225.84715)"><g><path d="M 1.640625 -3.453125 C 1.992188 -3.453125 2.296875 -3.390625 2.546875 -3.265625 C 2.796875 -3.140625 2.988281 -2.945312 3.125 -2.6875 C 3.257812 -2.4375 3.328125 -2.117188 3.328125 -1.734375 C 3.328125 -1.335938 3.257812 -1.007812 3.125 -0.75 C 2.988281 -0.5 2.796875 -0.3125 2.546875 -0.1875 C 2.296875 -0.0625 1.992188 0 1.640625 0 L 0.515625 0 L 0.515625 -3.453125 Z M 1.59375 -0.34375 C 1.882812 -0.34375 2.125 -0.382812 2.3125 -0.46875 C 2.507812 -0.5625 2.65625 -0.707031 2.75 -0.90625 C 2.84375 -1.113281 2.890625 -1.390625 2.890625 -1.734375 C 2.890625 -2.066406 2.84375 -2.332031 2.75 -2.53125 C 2.65625 -2.738281 2.507812 -2.882812 2.3125 -2.96875 C 2.125 -3.0625 1.882812 -3.109375 1.59375 -3.109375 L 0.921875 -3.109375 L 0.921875 -0.34375 Z M 1.59375 -0.34375 "/></g></g><g transform="translate(282.770293, 225.84715)"><g><path d="M 1.28125 0.046875 C 0.988281 0.046875 0.769531 -0.03125 0.625 -0.1875 C 0.476562 -0.34375 0.40625 -0.570312 0.40625 -0.875 L 0.40625 -2.609375 L 0.796875 -2.609375 L 0.796875 -0.875 C 0.796875 -0.476562 0.984375 -0.28125 1.359375 -0.28125 C 1.597656 -0.28125 1.785156 -0.359375 1.921875 -0.515625 C 2.054688 -0.671875 2.125 -0.921875 2.125 -1.265625 L 2.125 -2.609375 L 2.515625 -2.609375 L 2.515625 0 L 2.140625 0 L 2.140625 -0.40625 L 2.09375 -0.421875 C 2 -0.265625 1.890625 -0.144531 1.765625 -0.0625 C 1.640625 0.0078125 1.476562 0.046875 1.28125 0.046875 Z M 1.28125 0.046875 "/></g></g><g transform="translate(285.738012, 225.84715)"><g><path d="M 1.734375 0.046875 C 1.535156 0.046875 1.363281 0.0078125 1.21875 -0.0625 C 1.082031 -0.132812 0.972656 -0.234375 0.890625 -0.359375 L 0.84375 -0.34375 L 0.84375 0 L 0.453125 0 L 0.453125 -3.65625 L 0.84375 -3.65625 L 0.84375 -2.21875 L 0.890625 -2.203125 C 1.085938 -2.503906 1.375 -2.65625 1.75 -2.65625 C 1.96875 -2.65625 2.15625 -2.601562 2.3125 -2.5 C 2.476562 -2.40625 2.601562 -2.253906 2.6875 -2.046875 C 2.78125 -1.847656 2.828125 -1.597656 2.828125 -1.296875 C 2.828125 -1.003906 2.78125 -0.753906 2.6875 -0.546875 C 2.59375 -0.347656 2.460938 -0.195312 2.296875 -0.09375 C 2.128906 0 1.941406 0.046875 1.734375 0.046875 Z M 1.640625 -0.296875 C 2.160156 -0.296875 2.421875 -0.628906 2.421875 -1.296875 C 2.421875 -1.648438 2.351562 -1.90625 2.21875 -2.0625 C 2.082031 -2.226562 1.890625 -2.3125 1.640625 -2.3125 C 1.398438 -2.3125 1.207031 -2.226562 1.0625 -2.0625 C 0.914062 -1.894531 0.84375 -1.640625 0.84375 -1.296875 C 0.84375 -0.960938 0.914062 -0.710938 1.0625 -0.546875 C 1.207031 -0.378906 1.398438 -0.296875 1.640625 -0.296875 Z M 1.640625 -0.296875 "/></g></g><g transform="translate(288.854946, 225.84715)"><g><path d="M 2.484375 -1.21875 L 0.6875 -1.21875 C 0.707031 -0.894531 0.785156 -0.660156 0.921875 -0.515625 C 1.066406 -0.367188 1.257812 -0.296875 1.5 -0.296875 C 1.6875 -0.296875 1.835938 -0.328125 1.953125 -0.390625 C 2.066406 -0.460938 2.15625 -0.566406 2.21875 -0.703125 L 2.265625 -0.703125 L 2.515625 -0.5625 C 2.441406 -0.375 2.320312 -0.222656 2.15625 -0.109375 C 1.988281 -0.00390625 1.769531 0.046875 1.5 0.046875 C 1.25 0.046875 1.03125 0 0.84375 -0.09375 C 0.664062 -0.195312 0.523438 -0.347656 0.421875 -0.546875 C 0.328125 -0.753906 0.28125 -1.003906 0.28125 -1.296875 C 0.28125 -1.597656 0.332031 -1.847656 0.4375 -2.046875 C 0.539062 -2.253906 0.679688 -2.40625 0.859375 -2.5 C 1.046875 -2.601562 1.253906 -2.65625 1.484375 -2.65625 C 1.816406 -2.65625 2.078125 -2.5625 2.265625 -2.375 C 2.453125 -2.1875 2.546875 -1.90625 2.546875 -1.53125 C 2.546875 -1.382812 2.539062 -1.289062 2.53125 -1.25 Z M 2.171875 -1.53125 C 2.160156 -1.8125 2.09375 -2.015625 1.96875 -2.140625 C 1.851562 -2.265625 1.691406 -2.328125 1.484375 -2.328125 C 1.253906 -2.328125 1.070312 -2.265625 0.9375 -2.140625 C 0.8125 -2.015625 0.734375 -1.8125 0.703125 -1.53125 Z M 2.171875 -1.53125 "/></g></g><g transform="translate(291.640292, 225.84715)"><g><path d="M 2.203125 -2.609375 L 2.609375 -2.609375 L 1.4375 0.40625 C 1.375 0.570312 1.300781 0.707031 1.21875 0.8125 C 1.132812 0.914062 1.035156 0.988281 0.921875 1.03125 C 0.804688 1.082031 0.671875 1.109375 0.515625 1.109375 C 0.429688 1.109375 0.347656 1.097656 0.265625 1.078125 C 0.191406 1.066406 0.128906 1.046875 0.078125 1.015625 L 0.15625 0.71875 L 0.1875 0.703125 C 0.226562 0.722656 0.273438 0.738281 0.328125 0.75 C 0.390625 0.757812 0.453125 0.765625 0.515625 0.765625 C 0.617188 0.765625 0.703125 0.75 0.765625 0.71875 C 0.835938 0.695312 0.898438 0.648438 0.953125 0.578125 C 1.003906 0.515625 1.050781 0.425781 1.09375 0.3125 L 1.1875 0.0625 L 0.125 -2.609375 L 0.546875 -2.609375 L 1.375 -0.484375 L 1.421875 -0.484375 Z M 2.203125 -2.609375 "/></g></g></g></svg>